<svg width="24" height="24" viewBox="0 0 24 24" fill="none" xmlns="http://www.w3.org/2000/svg">
<path d="M4.72959 19.2704C4.57653 19.1173 4.5 18.9388 4.5 18.7347C4.5 18.5306 4.57653 18.352 4.72959 18.199L16.898 6.03061H10.1633C9.94218 6.03061 9.75935 5.95833 9.6148 5.81378C9.47024 5.66922 9.39796 5.48639 9.39796 5.26531C9.39796 5.04422 9.47024 4.86139 9.6148 4.71684C9.75935 4.57228 9.94218 4.5 10.1633 4.5H18.7347C18.9558 4.5 19.1386 4.57228 19.2832 4.71684C19.4277 4.86139 19.5 5.04422 19.5 5.26531V13.8367C19.5 14.0578 19.4277 14.2406 19.2832 14.3852C19.1386 14.5298 18.9558 14.602 18.7347 14.602C18.5136 14.602 18.3308 14.5298 18.1862 14.3852C18.0417 14.2406 17.9694 14.0578 17.9694 13.8367V7.10204L5.80102 19.2704C5.64796 19.4235 5.46939 19.5 5.26531 19.5C5.06122 19.5 4.88265 19.4235 4.72959 19.2704Z" fill="#141414"/>
</svg>
