<svg width="24" height="24" viewBox="0 0 24 24" fill="none" xmlns="http://www.w3.org/2000/svg">
<path d="M6.05 18.6176C5.83333 18.6176 5.65417 18.5495 5.5125 18.4134C5.37083 18.2773 5.3 18.1051 5.3 17.897V11.1713C5.3 10.9791 5.375 10.815 5.525 10.6789C5.675 10.5428 5.85 10.4747 6.05 10.4747C6.26667 10.4747 6.44583 10.5428 6.5875 10.6789C6.72917 10.815 6.8 10.9871 6.8 11.1953V17.921C6.8 18.1131 6.725 18.2773 6.575 18.4134C6.425 18.5495 6.25 18.6176 6.05 18.6176ZM12.1 18.6176C11.8833 18.6176 11.7042 18.5495 11.5625 18.4134C11.4208 18.2773 11.35 18.1051 11.35 17.897V11.1713C11.35 10.9791 11.425 10.815 11.575 10.6789C11.725 10.5428 11.9 10.4747 12.1 10.4747C12.3167 10.4747 12.4958 10.5428 12.6375 10.6789C12.7792 10.815 12.85 10.9871 12.85 11.1953V17.921C12.85 18.1131 12.775 18.2773 12.625 18.4134C12.475 18.5495 12.3 18.6176 12.1 18.6176ZM2.725 21.5C2.525 21.5 2.35417 21.4279 2.2125 21.2838C2.07083 21.1397 2 20.9716 2 20.7794C2 20.5712 2.07083 20.3991 2.2125 20.263C2.35417 20.1268 2.53333 20.0588 2.75 20.0588H21.275C21.475 20.0588 21.6458 20.1308 21.7875 20.275C21.9292 20.4191 22 20.5872 22 20.7794C22 20.9876 21.9292 21.1597 21.7875 21.2958C21.6458 21.4319 21.4667 21.5 21.25 21.5H2.725ZM17.95 18.6176C17.7333 18.6176 17.5542 18.5495 17.4125 18.4134C17.2708 18.2773 17.2 18.1051 17.2 17.897V11.1713C17.2 10.9791 17.275 10.815 17.425 10.6789C17.575 10.5428 17.75 10.4747 17.95 10.4747C18.1667 10.4747 18.3458 10.5428 18.4875 10.6789C18.6292 10.815 18.7 10.9871 18.7 11.1953V17.921C18.7 18.1131 18.625 18.2773 18.475 18.4134C18.325 18.5495 18.15 18.6176 17.95 18.6176ZM12.75 2.69216L21.45 7.44817C21.6167 7.52823 21.75 7.64433 21.85 7.79646C21.95 7.94859 22 8.11273 22 8.28887C22 8.51306 21.9083 8.69321 21.725 8.82933C21.5417 8.96544 21.3333 9.0335 21.1 9.0335H2.9C2.66667 9.0335 2.45833 8.96544 2.275 8.82933C2.09167 8.69321 2 8.51306 2 8.28887C2 8.11273 2.05417 7.95259 2.1625 7.80847C2.27083 7.66435 2.40833 7.54425 2.575 7.44817L11.25 2.69216C11.4833 2.56405 11.7333 2.5 12 2.5C12.2667 2.5 12.5167 2.56405 12.75 2.69216ZM5.35 7.59229H18.65H5.35ZM5.35 7.59229H18.65L12 3.94121L5.35 7.59229Z" fill="#141414"/>
</svg>
