<svg width="34" height="34" viewBox="0 0 34 34" fill="none" xmlns="http://www.w3.org/2000/svg">
<path d="M4.95703 29.7487C4.39036 29.7487 3.89453 29.5362 3.46953 29.1112C3.04453 28.6862 2.83203 28.1904 2.83203 27.6237V10.6237C2.83203 10.057 3.04453 9.5612 3.46953 9.1362C3.89453 8.7112 4.39036 8.4987 4.95703 8.4987H11.332V4.95703C11.332 4.39036 11.5445 3.89453 11.9695 3.46953C12.3945 3.04453 12.8904 2.83203 13.457 2.83203H20.5404C21.107 2.83203 21.6029 3.04453 22.0279 3.46953C22.4529 3.89453 22.6654 4.39036 22.6654 4.95703V8.4987H29.0404C29.607 8.4987 30.1029 8.7112 30.5279 9.1362C30.9529 9.5612 31.1654 10.057 31.1654 10.6237V27.6237C31.1654 28.1904 30.9529 28.6862 30.5279 29.1112C30.1029 29.5362 29.607 29.7487 29.0404 29.7487H4.95703ZM4.95703 27.6237H29.0404V10.6237H4.95703V27.6237ZM13.457 8.4987H20.5404V4.95703H13.457V8.4987ZM4.95703 27.6237V10.6237V27.6237Z" fill="#7633FF"/>
</svg>
