<svg width="40" height="40" viewBox="0 0 40 40" fill="none" xmlns="http://www.w3.org/2000/svg">
<circle cx="20" cy="20" r="20" fill="#F8F9FA"/>
<path d="M30 13.5V26.5C30 26.9 29.85 27.25 29.55 27.55C29.25 27.85 28.9 28 28.5 28H11.5C11.1 28 10.75 27.85 10.45 27.55C10.15 27.25 10 26.9 10 26.5V13.5C10 13.1 10.15 12.75 10.45 12.45C10.75 12.15 11.1 12 11.5 12H28.5C28.9 12 29.25 12.15 29.55 12.45C29.85 12.75 30 13.1 30 13.5ZM11.5 16.225H28.5V13.5H11.5V16.225ZM11.5 19.45V26.5H28.5V19.45H11.5ZM11.5 26.5V13.5V26.5Z" fill="#141414"/>
</svg>
