<svg width="24" height="24" viewBox="0 0 24 24" fill="none" xmlns="http://www.w3.org/2000/svg">
<path d="M9.21324 17.2131C9.0799 17.0464 9.00907 16.8631 9.00074 16.6631C8.9924 16.4631 9.06324 16.2881 9.21324 16.1381L13.6132 11.7381L9.18824 7.3131C9.0549 7.17976 8.9924 7.00059 9.00074 6.77559C9.00907 6.55059 9.0799 6.37143 9.21324 6.23809C9.3799 6.07143 9.55907 5.99226 9.75074 6.0006C9.9424 6.00893 10.1132 6.08809 10.2632 6.23809L15.2382 11.2131C15.3216 11.2964 15.3799 11.3798 15.4132 11.4631C15.4466 11.5464 15.4632 11.6381 15.4632 11.7381C15.4632 11.8381 15.4466 11.9298 15.4132 12.0131C15.3799 12.0964 15.3216 12.1798 15.2382 12.2631L10.2882 17.2131C10.1382 17.3631 9.96324 17.4339 9.76324 17.4256C9.56324 17.4173 9.3799 17.3464 9.21324 17.2131Z" fill="#141414"/>
</svg>
