<svg width="24" height="24" viewBox="0 0 24 24" fill="none" xmlns="http://www.w3.org/2000/svg">
<path d="M11.2433 12.1542L5.99332 17.4042C5.84332 17.5542 5.66832 17.6292 5.46832 17.6292C5.26832 17.6292 5.09332 17.5542 4.94332 17.4042C4.79332 17.2542 4.71832 17.0792 4.71832 16.8792C4.71832 16.6792 4.79332 16.5042 4.94332 16.3542L10.1933 11.1042L4.94332 5.85419C4.79332 5.70419 4.71832 5.52919 4.71832 5.32919C4.71832 5.12919 4.79332 4.95419 4.94332 4.80419C5.09332 4.65419 5.26832 4.57919 5.46832 4.57919C5.66832 4.57919 5.84332 4.65419 5.99332 4.80419L11.2433 10.0542L16.4933 4.80419C16.6433 4.65419 16.8183 4.57919 17.0183 4.57919C17.2183 4.57919 17.3933 4.65419 17.5433 4.80419C17.6933 4.95419 17.7683 5.12919 17.7683 5.32919C17.7683 5.52919 17.6933 5.70419 17.5433 5.85419L12.2933 11.1042L17.5433 16.3542C17.6933 16.5042 17.7683 16.6792 17.7683 16.8792C17.7683 17.0792 17.6933 17.2542 17.5433 17.4042C17.3933 17.5542 17.2183 17.6292 17.0183 17.6292C16.8183 17.6292 16.6433 17.5542 16.4933 17.4042L11.2433 12.1542Z" fill="#141414"/>
</svg>

