<svg width="34" height="34" viewBox="0 0 34 34" fill="none" xmlns="http://www.w3.org/2000/svg">
<path d="M16.9652 27.1643C17.225 27.1643 17.4493 27.0639 17.6382 26.8632C17.827 26.6625 17.9215 26.4323 17.9215 26.1726V25.3226C19.3382 25.1573 20.4538 24.6792 21.2684 23.8882C22.0829 23.0972 22.4902 22.0879 22.4902 20.8601C22.4902 19.6323 22.1538 18.6525 21.4809 17.9205C20.8079 17.1886 19.6451 16.5511 17.9923 16.008C16.5048 15.5122 15.4836 15.0222 14.9288 14.5382C14.3739 14.0542 14.0965 13.4226 14.0965 12.6434C14.0965 11.9115 14.3621 11.3389 14.8934 10.9257C15.4246 10.5125 16.1507 10.3059 17.0715 10.3059C17.6382 10.3059 18.1458 10.4122 18.5944 10.6247C19.043 10.8372 19.4326 11.1559 19.7632 11.5809C19.9284 11.7698 20.1291 11.8997 20.3652 11.9705C20.6013 12.0413 20.8257 12.0177 21.0382 11.8997C21.2979 11.7816 21.4691 11.5927 21.5517 11.333C21.6343 11.0733 21.593 10.8372 21.4277 10.6247C21.0263 10.058 20.5364 9.6094 19.9579 9.27884C19.3795 8.94829 18.7243 8.74759 17.9923 8.67676V7.82676C17.9923 7.56704 17.8979 7.34273 17.709 7.15384C17.5201 6.96495 17.2958 6.87051 17.0361 6.87051C16.7763 6.87051 16.5461 6.96495 16.3454 7.15384C16.1447 7.34273 16.0444 7.56704 16.0444 7.82676V8.67676C14.8402 8.84204 13.8899 9.27884 13.1934 9.98717C12.4968 10.6955 12.1486 11.5809 12.1486 12.6434C12.1486 13.8004 12.4496 14.7212 13.0517 15.4059C13.6538 16.0906 14.7694 16.74 16.3986 17.3538C18.075 17.9913 19.1847 18.5462 19.7277 19.0184C20.2708 19.4906 20.5423 20.1045 20.5423 20.8601C20.5423 21.6393 20.2236 22.2945 19.5861 22.8257C18.9486 23.357 18.1694 23.6226 17.2486 23.6226C16.4694 23.6226 15.7552 23.4337 15.1059 23.0559C14.4566 22.6781 13.9548 22.1469 13.6007 21.4622C13.4826 21.2733 13.3232 21.1257 13.1225 21.0195C12.9218 20.9132 12.7152 20.8955 12.5027 20.9663C12.1958 21.0844 11.9892 21.2674 11.8829 21.5153C11.7767 21.7632 11.8062 22.017 11.9715 22.2768C12.4437 23.0559 13.0045 23.6875 13.6538 24.1715C14.3031 24.6556 15.0763 25.0156 15.9736 25.2518V26.208C15.9736 26.4677 16.0739 26.692 16.2746 26.8809C16.4753 27.0698 16.7055 27.1643 16.9652 27.1643ZM17.0007 31.1663C14.9937 31.1663 13.1284 30.8063 11.4048 30.0861C9.68121 29.366 8.1819 28.3684 6.9069 27.0934C5.6319 25.8184 4.63433 24.3191 3.91419 22.5955C3.19405 20.8719 2.83398 19.0066 2.83398 16.9997C2.83398 15.0163 3.19405 13.1629 3.91419 11.4393C4.63433 9.71565 5.6319 8.21634 6.9069 6.94134C8.1819 5.66634 9.68121 4.66287 11.4048 3.93092C13.1284 3.19898 14.9937 2.83301 17.0007 2.83301C18.984 2.83301 20.8375 3.19898 22.5611 3.93092C24.2847 4.66287 25.784 5.66634 27.059 6.94134C28.334 8.21634 29.3375 9.71565 30.0694 11.4393C30.8013 13.1629 31.1673 15.0163 31.1673 16.9997C31.1673 19.0066 30.8013 20.8719 30.0694 22.5955C29.3375 24.3191 28.334 25.8184 27.059 27.0934C25.784 28.3684 24.2847 29.366 22.5611 30.0861C20.8375 30.8063 18.984 31.1663 17.0007 31.1663ZM17.0007 29.0413C20.4243 29.0413 23.2871 27.8903 25.5892 25.5882C27.8913 23.2861 29.0423 20.4233 29.0423 16.9997C29.0423 13.5761 27.8913 10.7132 25.5892 8.41113C23.2871 6.10905 20.4243 4.95801 17.0007 4.95801C13.577 4.95801 10.7142 6.10905 8.41211 8.41113C6.11003 10.7132 4.95898 13.5761 4.95898 16.9997C4.95898 20.4233 6.11003 23.2861 8.41211 25.5882C10.7142 27.8903 13.577 29.0413 17.0007 29.0413Z" fill="#7633FF"/>
</svg>
