<svg width="24" height="24" viewBox="0 0 24 24" fill="none" xmlns="http://www.w3.org/2000/svg">
<path d="M19.142 11.31C18.6709 11.31 18.3008 11.6802 18.3008 12.1513V13.8169L13.6068 9.13974C13.2871 8.82005 12.7319 8.82005 12.4122 9.13974L9.7203 11.8148L5.44693 7.5414C5.11047 7.20495 4.58892 7.20495 4.25234 7.5414C3.91589 7.87786 3.91589 8.39941 4.25234 8.73599L9.13139 13.615C9.45108 13.9347 10.0063 13.9347 10.326 13.615L13.0011 10.9231L17.1063 15.0282H15.4406C14.9695 15.0282 14.5994 15.3983 14.5994 15.8694C14.5994 16.3405 14.9695 16.7106 15.4406 16.7106H19.1588C19.6299 16.7106 20 16.3405 20 15.8694V12.1513C19.9832 11.6802 19.6131 11.31 19.142 11.31H19.142Z" fill="#9764FF"/>
</svg>
