<svg width="24" height="24" viewBox="0 0 24 24" fill="none" xmlns="http://www.w3.org/2000/svg">
<path d="M11.6632 15.4674C11.5632 15.4674 11.4716 15.4507 11.3882 15.4174C11.3049 15.3841 11.2216 15.3257 11.1382 15.2424L6.18824 10.2924C6.0549 10.1591 5.9924 9.97989 6.00074 9.75489C6.00907 9.52989 6.0799 9.35072 6.21324 9.21739C6.3799 9.05072 6.55907 8.97989 6.75074 9.00489C6.9424 9.02989 7.11323 9.10906 7.26323 9.24239L11.6632 13.6424L16.0632 9.24239C16.1966 9.10906 16.3757 9.03406 16.6007 9.01739C16.8257 9.00072 17.0049 9.07572 17.1382 9.24239C17.3049 9.37572 17.3757 9.55072 17.3507 9.76739C17.3257 9.98406 17.2466 10.1674 17.1132 10.3174L12.1882 15.2424C12.1049 15.3257 12.0216 15.3841 11.9382 15.4174C11.8549 15.4507 11.7632 15.4674 11.6632 15.4674Z" fill="#141414"/>
</svg>
