<svg width="24" height="24" viewBox="0 0 24 24" fill="none" xmlns="http://www.w3.org/2000/svg">
<path d="M15.7852 13.0568L14.6674 12.0348C15.1078 10.9355 14.8791 10.0219 13.9815 9.29419C13.0839 8.56645 12.1101 8.38065 11.06 8.73677L9.94226 7.71484C10.2302 7.54452 10.552 7.42065 10.9076 7.34323C11.2633 7.26581 11.6274 7.2271 12 7.2271C13.2025 7.2271 14.2229 7.61032 15.0612 8.37677C15.8995 9.14323 16.3187 10.0761 16.3187 11.1755C16.3187 11.5161 16.2721 11.8529 16.179 12.1858C16.0858 12.5187 15.9546 12.809 15.7852 13.0568ZM19.0624 16.0529L18.0462 15.1239C18.8761 14.5665 19.6001 13.9432 20.2182 13.2542C20.8364 12.5652 21.2895 11.8723 21.5774 11.1755C20.7306 9.45677 19.4604 8.09806 17.7667 7.09936C16.0731 6.10065 14.2356 5.60129 12.254 5.60129C11.5427 5.60129 10.8145 5.66323 10.0693 5.7871C9.32409 5.91097 8.7398 6.05806 8.3164 6.22839L7.14781 5.13677C7.74057 4.88903 8.49846 4.67226 9.42148 4.48645C10.3445 4.30065 11.2463 4.20774 12.127 4.20774C14.4134 4.20774 16.5219 4.78065 18.4527 5.92645C20.3834 7.07226 21.8568 8.6129 22.873 10.5484C22.9238 10.6258 22.9577 10.7187 22.9746 10.8271C22.9915 10.9355 23 11.0516 23 11.1755C23 11.2994 22.9915 11.4194 22.9746 11.5355C22.9577 11.6516 22.9238 11.7484 22.873 11.8258C22.4326 12.6774 21.8907 13.4594 21.2471 14.1716C20.6035 14.8839 19.8753 15.511 19.0624 16.0529ZM19.9769 20.791L16.2679 17.4697C15.6751 17.6865 15.0062 17.8529 14.261 17.969C13.5158 18.0852 12.7621 18.1432 12 18.1432C9.66282 18.1432 7.5204 17.5703 5.57275 16.4245C3.6251 15.2787 2.14319 13.7381 1.12702 11.8026C1.07621 11.7097 1.04234 11.6129 1.0254 11.5123C1.00847 11.4116 1 11.2994 1 11.1755C1 11.0516 1.0127 10.9316 1.03811 10.8155C1.06351 10.6994 1.09315 10.6026 1.12702 10.5252C1.48268 9.82839 1.93572 9.15097 2.48614 8.4929C3.03657 7.83484 3.68437 7.21161 4.42956 6.62323L1.76212 4.18452C1.6097 4.04516 1.53349 3.88258 1.53349 3.69677C1.53349 3.51097 1.6097 3.34839 1.76212 3.20903C1.91455 3.06968 2.09661 3 2.30831 3C2.52002 3 2.70208 3.06968 2.8545 3.20903L21.0439 19.8387C21.1794 19.9626 21.2471 20.1135 21.2471 20.2916C21.2471 20.4697 21.1794 20.6284 21.0439 20.7677C20.9084 20.9226 20.7348 21 20.5231 21C20.3114 21 20.1293 20.9303 19.9769 20.791ZM5.47113 7.59871C4.8445 8.01677 4.23903 8.56645 3.65473 9.24774C3.07044 9.92903 2.65127 10.5716 2.39723 11.1755C3.26097 12.8942 4.56082 14.2529 6.29677 15.2516C8.03272 16.2503 10.0015 16.7497 12.2032 16.7497C12.7621 16.7497 13.3125 16.7187 13.8545 16.6568C14.3965 16.5948 14.8029 16.5019 15.0739 16.3781L13.448 14.8916C13.2617 14.969 13.0331 15.0271 12.7621 15.0658C12.4911 15.1045 12.2371 15.1239 12 15.1239C10.8145 15.1239 9.79831 14.7445 8.9515 13.9858C8.1047 13.2271 7.68129 12.2903 7.68129 11.1755C7.68129 10.9432 7.70246 10.711 7.7448 10.4787C7.78714 10.2465 7.85065 10.0374 7.93533 9.85161L5.47113 7.59871Z" fill="#141414"/>
</svg>
