<svg width="24" height="24" viewBox="0 0 24 24" fill="none" xmlns="http://www.w3.org/2000/svg">
<path d="M12 16.75C13.2025 16.75 14.2229 16.3375 15.0612 15.5125C15.8995 14.6875 16.3187 13.6833 16.3187 12.5C16.3187 11.3167 15.8995 10.3125 15.0612 9.4875C14.2229 8.6625 13.2025 8.25 12 8.25C10.7975 8.25 9.77714 8.6625 8.9388 9.4875C8.10046 10.3125 7.68129 11.3167 7.68129 12.5C7.68129 13.6833 8.10046 14.6875 8.9388 15.5125C9.77714 16.3375 10.7975 16.75 12 16.75ZM12 15.3C11.204 15.3 10.5308 15.0292 9.98037 14.4875C9.42994 13.9458 9.15473 13.2833 9.15473 12.5C9.15473 11.7167 9.42994 11.0542 9.98037 10.5125C10.5308 9.97083 11.204 9.7 12 9.7C12.796 9.7 13.4692 9.97083 14.0196 10.5125C14.5701 11.0542 14.8453 11.7167 14.8453 12.5C14.8453 13.2833 14.5701 13.9458 14.0196 14.4875C13.4692 15.0292 12.796 15.3 12 15.3ZM12 20C9.66282 20 7.5331 19.375 5.61085 18.125C3.68861 16.875 2.20246 15.225 1.15243 13.175C1.10162 13.0917 1.06351 12.9917 1.03811 12.875C1.0127 12.7583 1 12.6333 1 12.5C1 12.3667 1.0127 12.2417 1.03811 12.125C1.06351 12.0083 1.10162 11.9083 1.15243 11.825C2.20246 9.775 3.68861 8.125 5.61085 6.875C7.5331 5.625 9.66282 5 12 5C14.3372 5 16.4669 5.625 18.3891 6.875C20.3114 8.125 21.7975 9.775 22.8476 11.825C22.8984 11.9083 22.9365 12.0083 22.9619 12.125C22.9873 12.2417 23 12.3667 23 12.5C23 12.6333 22.9873 12.7583 22.9619 12.875C22.9365 12.9917 22.8984 13.0917 22.8476 13.175C21.7975 15.225 20.3114 16.875 18.3891 18.125C16.4669 19.375 14.3372 20 12 20ZM12 18.5C14.0493 18.5 15.9334 17.9542 17.6524 16.8625C19.3714 15.7708 20.6798 14.3167 21.5774 12.5C20.6798 10.6833 19.3714 9.22917 17.6524 8.1375C15.9334 7.04583 14.0493 6.5 12 6.5C9.95073 6.5 8.06659 7.04583 6.34757 8.1375C4.62856 9.22917 3.31178 10.6833 2.39723 12.5C3.31178 14.3167 4.62856 15.7708 6.34757 16.8625C8.06659 17.9542 9.95073 18.5 12 18.5Z" fill="#141414"/>
</svg>
