<svg width="28" height="28" viewBox="0 0 28 28" fill="none" xmlns="http://www.w3.org/2000/svg">
<path d="M14 2C7.3724 2 2 7.3724 2 14C2 20.6276 7.3724 26 14 26C20.6276 26 26 20.6276 26 14C26 7.3724 20.6276 2 14 2Z" fill="url(#paint0_linear_486_10157)"/>
<path d="M14.5791 16.0922H17.5984L18.0727 13.0251H14.5791V11.3486C14.5791 10.0746 14.9956 8.94467 16.1873 8.94467H18.1024V6.26833C17.7658 6.22283 17.0542 6.12367 15.7096 6.12367C12.9014 6.12367 11.2553 7.6065 11.2553 10.9852V13.0257H8.36835V16.0928H11.2547V24.5232C11.8263 24.6083 12.4056 24.6667 13 24.6667C13.5373 24.6667 14.0617 24.6177 14.5791 24.5477V16.0922Z" fill="white"/>
<defs>
<linearGradient id="paint0_linear_486_10157" x1="5.5958" y1="5.5958" x2="23.969" y2="23.969" gradientUnits="userSpaceOnUse">
<stop stop-color="#2AA4F4"/>
<stop offset="1" stop-color="#007AD9"/>
</linearGradient>
</defs>
</svg>
