<svg width="24" height="24" viewBox="0 0 24 24" fill="none" xmlns="http://www.w3.org/2000/svg">
<path fill-rule="evenodd" clip-rule="evenodd" d="M8.4004 4.69932C8.05558 4.69932 7.72488 4.8363 7.48105 5.08013C7.23722 5.32395 7.10024 5.65466 7.10024 5.99948C7.10024 6.34431 7.23722 6.67501 7.48105 6.91884C7.72488 7.16267 8.05558 7.29965 8.4004 7.29965H11.0677C10.962 7.00648 10.8205 6.66986 10.6373 6.33682C10.1282 5.41124 9.41125 4.69932 8.4004 4.69932ZM8.4004 8.69965C8.04727 8.69965 7.70126 8.63047 7.38051 8.49962H4.5V11.5H5.11023C5.23649 11.3762 5.4094 11.3 5.60013 11.3C5.79086 11.3 5.96377 11.3762 6.09002 11.5H11.3006V8.69965H8.4004ZM4 7.49962H6.15529C5.86076 7.05882 5.70024 6.53743 5.70024 5.99948C5.70024 5.28335 5.98472 4.59656 6.4911 4.09018C6.99748 3.5838 7.68427 3.29932 8.4004 3.29932C10.1898 3.29932 11.273 4.58756 11.864 5.66214C12.0836 6.06146 12.251 6.45738 12.3753 6.79864C12.8463 5.62038 13.8184 3.99932 15.6009 3.99932C16.1314 3.99932 16.6402 4.21005 17.0153 4.58515C17.3904 4.96025 17.6011 5.469 17.6011 5.99948C17.6011 6.52996 17.3904 7.03871 17.0153 7.41381C16.9856 7.44345 16.9552 7.47206 16.9239 7.49962H20.0013C20.2775 7.49962 20.5013 7.72348 20.5013 7.99962V12C20.5013 12.2761 20.2775 12.5 20.0013 12.5H19.1012V20.0006C19.1012 20.3872 18.7878 20.7006 18.4012 20.7006H5.60013C5.21353 20.7006 4.90013 20.3872 4.90013 20.0006V12.5H4C3.72386 12.5 3.5 12.2761 3.5 12V7.99962C3.5 7.72348 3.72386 7.49962 4 7.49962ZM12.7006 11.5V8.49962H19.5013V11.5H18.8911C18.7648 11.3762 18.5919 11.3 18.4012 11.3C18.2105 11.3 18.0375 11.3762 17.9113 11.5H12.7006ZM11.3006 12.5H6.30013V19.3006H11.3006V12.5ZM12.7006 19.3006V12.5H17.7012V19.3006H12.7006Z" fill="#A5A8AC"/>
</svg>
