<svg width="28" height="28" viewBox="0 0 28 28" fill="none" xmlns="http://www.w3.org/2000/svg">
<path d="M25.4398 11.7151H24.5V11.6667H14V16.3333H20.5934C19.6315 19.0499 17.0468 21 14 21C10.1343 21 7.00001 17.8658 7.00001 14C7.00001 10.1343 10.1343 7 14 7C15.7844 7 17.4078 7.67317 18.6439 8.77275L21.9438 5.47283C19.8602 3.53092 17.073 2.33333 14 2.33333C7.55709 2.33333 2.33334 7.55708 2.33334 14C2.33334 20.4429 7.55709 25.6667 14 25.6667C20.4429 25.6667 25.6667 20.4429 25.6667 14C25.6667 13.2178 25.5862 12.4542 25.4398 11.7151Z" fill="#FFC107"/>
<path d="M3.6785 8.56975L7.51158 11.3808C8.54875 8.813 11.0606 7 14 7C15.7844 7 17.4078 7.67317 18.6439 8.77275L21.9438 5.47283C19.8602 3.53092 17.073 2.33333 14 2.33333C9.51883 2.33333 5.63266 4.86325 3.6785 8.56975Z" fill="#FF3D00"/>
<path d="M14 25.6667C17.0135 25.6667 19.7517 24.5134 21.8219 22.638L18.2111 19.5825C17.0397 20.4697 15.5837 21 14 21C10.9655 21 8.38891 19.0651 7.41824 16.3648L3.61374 19.2961C5.54457 23.0743 9.46574 25.6667 14 25.6667Z" fill="#4CAF50"/>
<path d="M25.4398 11.7151H24.5V11.6667H14V16.3333H20.5934C20.1314 17.6383 19.292 18.7635 18.2093 19.5831C18.2099 19.5825 18.2105 19.5825 18.2111 19.5819L21.8219 22.6374C21.5664 22.8696 25.6667 19.8333 25.6667 14C25.6667 13.2178 25.5862 12.4542 25.4398 11.7151Z" fill="#1976D2"/>
</svg>
