<svg width="24" height="24" viewBox="0 0 24 24" fill="none" xmlns="http://www.w3.org/2000/svg">
<path d="M5.5 19.4681H9.25V13.0851H14.75V19.4681H18.5V9.51064L12 4.53191L5.5 9.51064V19.4681ZM5.5 21C5.08333 21 4.72917 20.8511 4.4375 20.5532C4.14583 20.2553 4 19.8936 4 19.4681V9.51064C4 9.27234 4.05417 9.04255 4.1625 8.82128C4.27083 8.6 4.41667 8.42128 4.6 8.28511L11.1 3.30638C11.2333 3.20426 11.375 3.12766 11.525 3.0766C11.675 3.02553 11.8333 3 12 3C12.1667 3 12.325 3.02553 12.475 3.0766C12.625 3.12766 12.7667 3.20426 12.9 3.30638L19.4 8.28511C19.5833 8.42128 19.7292 8.6 19.8375 8.82128C19.9458 9.04255 20 9.27234 20 9.51064V19.4681C20 19.8936 19.8542 20.2553 19.5625 20.5532C19.2708 20.8511 18.9167 21 18.5 21H13.25V14.617H10.75V21H5.5Z" fill="#7633FF"/>
</svg>
