<svg width="28" height="28" viewBox="0 0 28 28" fill="none" xmlns="http://www.w3.org/2000/svg">
<rect width="28" height="28" fill="white"/>
<path d="M14.0084 10.4993H20.1684C20.4519 10.4993 20.7284 10.5265 20.9961 10.579V8.31533C20.9961 7.10783 21.9744 6.12784 23.181 6.12784H24.1908C24.3623 6.12784 24.5023 5.98783 24.5023 5.81633V4.79871C24.5023 4.56421 24.6921 4.37433 24.9258 4.37433C25.6573 4.37433 26.2496 4.96758 26.2496 5.69908V7.43946C26.2496 8.64696 25.2714 9.62696 24.0648 9.62696H23.0559C23.015 9.62696 22.9745 9.63502 22.9367 9.65067C22.8989 9.66633 22.8646 9.68927 22.8356 9.7182C22.8067 9.74712 22.7838 9.78146 22.7681 9.81925C22.7525 9.85705 22.7444 9.89755 22.7444 9.93846V11.3568C23.2801 11.7578 23.7149 12.2782 24.0141 12.8767C24.3134 13.4751 24.4688 14.1352 24.4681 14.8043V21.0868C24.4681 21.5969 24.2947 22.0918 23.9764 22.4903L21.1466 26.0323C21.0927 26.1001 21.0241 26.1548 20.9461 26.1923C20.8681 26.2299 20.7826 26.2494 20.696 26.2493H19.6311C19.5934 26.2494 19.5565 26.2389 19.5244 26.2191C19.4923 26.1993 19.4664 26.171 19.4495 26.1373C19.4326 26.1036 19.4254 26.0659 19.4287 26.0283C19.4321 25.9908 19.4458 25.9549 19.4684 25.9247L21.4275 23.3093C21.7617 22.8638 21.9052 22.3037 21.8264 21.7523C21.7476 21.201 21.4531 20.7035 21.0075 20.3693L18.8095 18.7182C18.5123 18.4949 18.1505 18.3742 17.7788 18.3743H10.7753C10.1839 18.375 9.59861 18.2541 9.05589 18.0191C9.01395 18.0011 8.96757 17.9962 8.92279 18.0049C8.87801 18.0137 8.83689 18.0357 8.80477 18.0681L8.03477 18.8381C7.97978 18.893 7.93641 18.9585 7.90725 19.0306C7.8781 19.1026 7.86374 19.1798 7.86505 19.2576C7.86635 19.3353 7.88329 19.412 7.91486 19.483C7.94642 19.554 7.99196 19.618 8.04877 19.6711L9.15302 20.7858C9.29003 20.9226 9.4757 20.9994 9.66927 20.9993H10.0691C10.3001 20.9993 10.4874 21.1875 10.4874 21.4185V22.3311C10.4874 22.3861 10.4765 22.4405 10.4555 22.4913C10.4344 22.5421 10.4035 22.5883 10.3646 22.6271C10.3257 22.666 10.2794 22.6968 10.2286 22.7178C10.1777 22.7387 10.1233 22.7495 10.0683 22.7493H9.66927C9.34374 22.7503 9.02127 22.6866 8.72056 22.5619C8.41985 22.4372 8.14689 22.2541 7.91752 22.0231L6.82814 20.9241C6.38061 20.4823 6.12559 19.8817 6.11852 19.2528C6.11711 18.9461 6.17664 18.6421 6.29365 18.3585C6.41066 18.0749 6.58282 17.8174 6.80014 17.6008L7.36102 17.0382C7.40065 16.9983 7.42424 16.9453 7.4273 16.8891C7.43037 16.833 7.4127 16.7777 7.37764 16.7337C6.89231 16.1239 6.58036 15.3945 6.47464 14.6223L5.50339 7.58296C5.498 7.54383 5.48376 7.50645 5.46175 7.47365C5.43974 7.44085 5.41054 7.4135 5.37638 7.39368C5.34222 7.37385 5.30398 7.36208 5.26459 7.35925C5.22519 7.35642 5.18567 7.3626 5.14902 7.37734L3.89952 7.88134L2.78564 5.87758L4.16639 4.38133H3.46027C3.42935 4.38118 3.39883 4.37438 3.37079 4.36137C3.34274 4.34837 3.31782 4.32948 3.29773 4.30598C3.27764 4.28248 3.26284 4.25493 3.25435 4.22521C3.24586 4.19548 3.24387 4.16427 3.24852 4.13371C3.30774 3.71514 3.51603 3.332 3.83512 3.0547C4.15421 2.77741 4.56265 2.62459 4.98539 2.62433H5.61539V1.98558C5.61551 1.9433 5.62698 1.90183 5.64859 1.86549C5.6702 1.82915 5.70117 1.79927 5.73827 1.77898C5.77537 1.75869 5.81723 1.74873 5.85949 1.75013C5.90174 1.75153 5.94285 1.76425 5.97852 1.78696L7.09327 2.62171H11.6669C11.8725 2.62171 12.0396 2.78883 12.0396 2.99533C12.0396 3.57546 11.7378 4.08383 11.2828 4.37346H13.6173C13.8273 4.37346 13.9979 4.54496 13.9979 4.75496C13.9985 5.19946 13.8888 5.63716 13.6787 6.02885C13.4686 6.42055 13.1646 6.754 12.7939 6.99933H15.0531C15.2526 6.99933 15.4136 7.16121 15.4136 7.36071C15.4143 7.99865 15.241 8.62469 14.9125 9.17153C14.5839 9.71837 14.1125 10.1653 13.549 10.4643C13.6995 10.4871 13.8535 10.4993 14.0093 10.4993H14.0084ZM5.68714 5.73321C5.80318 5.73321 5.91446 5.68712 5.9965 5.60507C6.07855 5.52302 6.12464 5.41174 6.12464 5.29571V4.81183C6.12729 4.75279 6.11794 4.69383 6.09717 4.6385C6.07639 4.58317 6.04463 4.53262 6.00378 4.48991C5.96294 4.4472 5.91386 4.4132 5.85951 4.38997C5.80517 4.36675 5.74668 4.35477 5.68758 4.35477C5.62848 4.35477 5.56999 4.36675 5.51565 4.38997C5.4613 4.4132 5.41223 4.4472 5.37138 4.48991C5.33054 4.53262 5.29877 4.58317 5.278 4.6385C5.25722 4.69383 5.24788 4.75279 5.25052 4.81183V5.29658C5.25052 5.41262 5.29661 5.5239 5.37866 5.60594C5.46071 5.68799 5.57199 5.73408 5.68802 5.73408L5.68714 5.73321Z" fill="#141414"/>
<path d="M2.47343 6.21582L1.99831 6.73207C1.8976 6.841 1.82422 6.97229 1.78421 7.11514C1.7442 7.25799 1.7387 7.40831 1.76818 7.5537C1.89068 8.15482 2.48568 8.45319 3.05443 8.22307L3.49106 8.04719L2.47343 6.21582ZM5.50531 13.9989H4.94531C4.63958 13.9991 4.33687 14.0594 4.05448 14.1765C3.77208 14.2937 3.51552 14.4653 3.29946 14.6816C3.0834 14.8979 2.91208 15.1546 2.79527 15.4372C2.67846 15.7197 2.61845 16.0225 2.61868 16.3282V18.3932C2.61868 19.0556 2.87681 19.6786 3.34493 20.1467L3.68793 20.4897C3.71882 20.5206 3.7555 20.5452 3.79589 20.562C3.83628 20.5787 3.87958 20.5873 3.92331 20.5873C3.96703 20.5873 4.01033 20.5787 4.05072 20.562C4.09111 20.5452 4.1278 20.5206 4.15868 20.4897L4.92256 19.7232C4.98486 19.6607 5.01984 19.5761 5.01984 19.4878C5.01984 19.3996 4.98486 19.3149 4.92256 19.2524L4.57956 18.9094C4.44306 18.7723 4.36631 18.5867 4.36606 18.3932V16.3282C4.36606 16.0079 4.62593 15.7489 4.94531 15.7489H5.85006C5.73614 15.4221 5.65495 15.0847 5.60768 14.7418L5.50531 13.9989ZM16.6038 19.2498V20.2779C16.6037 20.3879 16.582 20.4967 16.5398 20.5982C16.4976 20.6997 16.4358 20.7919 16.3579 20.8694L15.5862 21.6377C15.3539 21.8692 15.1699 22.1445 15.0446 22.4475C14.9194 22.7506 14.8554 23.0755 14.8564 23.4034V24.2233C14.8564 24.3756 14.9789 24.4998 15.1321 24.4998H16.3282C16.4014 24.4996 16.4715 24.4704 16.5231 24.4185C16.5748 24.3667 16.6038 24.2965 16.6038 24.2233V23.4026C16.6038 23.2048 16.6826 23.0149 16.8226 22.8749L19.4213 20.2727L18.2838 19.4187C18.1383 19.3092 17.9611 19.2499 17.7789 19.2498H16.6038Z" fill="#141414"/>
</svg>
