<svg width="24" height="24" viewBox="0 0 24 24" fill="none" xmlns="http://www.w3.org/2000/svg">
<path d="M11.9246 0.75C7.04961 0.75 2.88711 3.9 1.34961 8.25H22.5746C20.9996 3.9 16.8371 0.75 11.9246 0.75Z" fill="#F2B200"/>
<path d="M11.9246 23.25C16.8371 23.25 20.9996 20.1375 22.5371 15.75H1.34961C2.88711 20.1375 7.04961 23.25 11.9246 23.25Z" fill="#83BF4F"/>
<path d="M1.35039 8.25C0.937891 9.4125 0.712891 10.6875 0.712891 12C0.712891 13.3125 0.937891 14.5875 1.35039 15.75H22.5754C22.9879 14.5875 23.2129 13.3125 23.2129 12C23.2129 10.6875 22.9879 9.4125 22.5754 8.25H1.35039Z" fill="white"/>
<path d="M11.9258 15C13.5826 15 14.9258 13.6569 14.9258 12C14.9258 10.3431 13.5826 9 11.9258 9C10.2689 9 8.92578 10.3431 8.92578 12C8.92578 13.6569 10.2689 15 11.9258 15Z" fill="#428BC1"/>
<path d="M11.9258 14.625C13.3755 14.625 14.5508 13.4497 14.5508 12C14.5508 10.5503 13.3755 9.375 11.9258 9.375C10.476 9.375 9.30078 10.5503 9.30078 12C9.30078 13.4497 10.476 14.625 11.9258 14.625Z" fill="white"/>
<path d="M10.9512 9.75C11.0547 9.75 11.1387 9.66605 11.1387 9.5625C11.1387 9.45895 11.0547 9.375 10.9512 9.375C10.8476 9.375 10.7637 9.45895 10.7637 9.5625C10.7637 9.66605 10.8476 9.75 10.9512 9.75Z" fill="#428BC1"/>
<path d="M10.3496 10.0874C10.4532 10.0874 10.5371 10.0035 10.5371 9.8999C10.5371 9.79635 10.4532 9.7124 10.3496 9.7124C10.2461 9.7124 10.1621 9.79635 10.1621 9.8999C10.1621 10.0035 10.2461 10.0874 10.3496 10.0874Z" fill="#428BC1"/>
<path d="M9.86328 10.5752C9.96683 10.5752 10.0508 10.4912 10.0508 10.3877C10.0508 10.2841 9.96683 10.2002 9.86328 10.2002C9.75973 10.2002 9.67578 10.2841 9.67578 10.3877C9.67578 10.4912 9.75973 10.5752 9.86328 10.5752Z" fill="#428BC1"/>
<path d="M9.52539 11.1748C9.62894 11.1748 9.71289 11.0909 9.71289 10.9873C9.71289 10.8838 9.62894 10.7998 9.52539 10.7998C9.42184 10.7998 9.33789 10.8838 9.33789 10.9873C9.33789 11.0909 9.42184 11.1748 9.52539 11.1748Z" fill="#428BC1"/>
<path d="M9.33789 11.8501C9.44144 11.8501 9.52539 11.7662 9.52539 11.6626C9.52539 11.559 9.44144 11.4751 9.33789 11.4751C9.23434 11.4751 9.15039 11.559 9.15039 11.6626C9.15039 11.7662 9.23434 11.8501 9.33789 11.8501Z" fill="#428BC1"/>
<path d="M9.33789 12.5249C9.44144 12.5249 9.52539 12.441 9.52539 12.3374C9.52539 12.2338 9.44144 12.1499 9.33789 12.1499C9.23434 12.1499 9.15039 12.2338 9.15039 12.3374C9.15039 12.441 9.23434 12.5249 9.33789 12.5249Z" fill="#428BC1"/>
<path d="M9.52539 13.2002C9.62894 13.2002 9.71289 13.1162 9.71289 13.0127C9.71289 12.9091 9.62894 12.8252 9.52539 12.8252C9.42184 12.8252 9.33789 12.9091 9.33789 13.0127C9.33789 13.1162 9.42184 13.2002 9.52539 13.2002Z" fill="#428BC1"/>
<path d="M9.86328 13.7998C9.96683 13.7998 10.0508 13.7159 10.0508 13.6123C10.0508 13.5088 9.96683 13.4248 9.86328 13.4248C9.75973 13.4248 9.67578 13.5088 9.67578 13.6123C9.67578 13.7159 9.75973 13.7998 9.86328 13.7998Z" fill="#428BC1"/>
<path d="M10.3496 14.2876C10.4532 14.2876 10.5371 14.2037 10.5371 14.1001C10.5371 13.9965 10.4532 13.9126 10.3496 13.9126C10.2461 13.9126 10.1621 13.9965 10.1621 14.1001C10.1621 14.2037 10.2461 14.2876 10.3496 14.2876Z" fill="#428BC1"/>
<path d="M10.9512 14.625C11.0547 14.625 11.1387 14.5411 11.1387 14.4375C11.1387 14.3339 11.0547 14.25 10.9512 14.25C10.8476 14.25 10.7637 14.3339 10.7637 14.4375C10.7637 14.5411 10.8476 14.625 10.9512 14.625Z" fill="#428BC1"/>
<path d="M11.5879 14.7749C11.6914 14.7749 11.7754 14.691 11.7754 14.5874C11.7754 14.4838 11.6914 14.3999 11.5879 14.3999C11.4843 14.3999 11.4004 14.4838 11.4004 14.5874C11.4004 14.691 11.4843 14.7749 11.5879 14.7749Z" fill="#428BC1"/>
<path d="M12.1133 14.6249C12.1133 14.5124 12.1883 14.4374 12.2633 14.3999C12.3758 14.3999 12.4508 14.4749 12.4883 14.5499C12.4883 14.6624 12.4133 14.7374 12.3383 14.7749C12.1883 14.8124 12.1133 14.7374 12.1133 14.6249Z" fill="#428BC1"/>
<path d="M12.9375 14.625C13.0411 14.625 13.125 14.5411 13.125 14.4375C13.125 14.3339 13.0411 14.25 12.9375 14.25C12.8339 14.25 12.75 14.3339 12.75 14.4375C12.75 14.5411 12.8339 14.625 12.9375 14.625Z" fill="#428BC1"/>
<path d="M13.5371 14.2876C13.6407 14.2876 13.7246 14.2037 13.7246 14.1001C13.7246 13.9965 13.6407 13.9126 13.5371 13.9126C13.4336 13.9126 13.3496 13.9965 13.3496 14.1001C13.3496 14.2037 13.4336 14.2876 13.5371 14.2876Z" fill="#428BC1"/>
<path d="M14.0254 13.7998C14.1289 13.7998 14.2129 13.7159 14.2129 13.6123C14.2129 13.5088 14.1289 13.4248 14.0254 13.4248C13.9218 13.4248 13.8379 13.5088 13.8379 13.6123C13.8379 13.7159 13.9218 13.7998 14.0254 13.7998Z" fill="#428BC1"/>
<path d="M14.3633 13.2002C14.4668 13.2002 14.5508 13.1162 14.5508 13.0127C14.5508 12.9091 14.4668 12.8252 14.3633 12.8252C14.2597 12.8252 14.1758 12.9091 14.1758 13.0127C14.1758 13.1162 14.2597 13.2002 14.3633 13.2002Z" fill="#428BC1"/>
<path d="M14.5508 12.5249C14.6543 12.5249 14.7383 12.441 14.7383 12.3374C14.7383 12.2338 14.6543 12.1499 14.5508 12.1499C14.4472 12.1499 14.3633 12.2338 14.3633 12.3374C14.3633 12.441 14.4472 12.5249 14.5508 12.5249Z" fill="#428BC1"/>
<path d="M14.5512 11.8501C14.4387 11.8501 14.3637 11.7751 14.3262 11.7001C14.3262 11.5876 14.4012 11.5126 14.4762 11.4751C14.5887 11.4751 14.6637 11.5501 14.7012 11.6251C14.7387 11.7376 14.6637 11.8126 14.5512 11.8501Z" fill="#428BC1"/>
<path d="M14.3633 11.1748C14.4668 11.1748 14.5508 11.0909 14.5508 10.9873C14.5508 10.8838 14.4668 10.7998 14.3633 10.7998C14.2597 10.7998 14.1758 10.8838 14.1758 10.9873C14.1758 11.0909 14.2597 11.1748 14.3633 11.1748Z" fill="#428BC1"/>
<path d="M14.0254 10.5752C14.1289 10.5752 14.2129 10.4912 14.2129 10.3877C14.2129 10.2841 14.1289 10.2002 14.0254 10.2002C13.9218 10.2002 13.8379 10.2841 13.8379 10.3877C13.8379 10.4912 13.9218 10.5752 14.0254 10.5752Z" fill="#428BC1"/>
<path d="M13.5371 10.0874C13.6407 10.0874 13.7246 10.0035 13.7246 9.8999C13.7246 9.79635 13.6407 9.7124 13.5371 9.7124C13.4336 9.7124 13.3496 9.79635 13.3496 9.8999C13.3496 10.0035 13.4336 10.0874 13.5371 10.0874Z" fill="#428BC1"/>
<path d="M13.1254 9.63749C13.0879 9.74999 12.9754 9.78749 12.8629 9.74999C12.7504 9.71249 12.7129 9.59999 12.7504 9.48749C12.7879 9.37499 12.9004 9.33749 13.0129 9.37499C13.1254 9.44999 13.1629 9.56249 13.1254 9.63749ZM12.4504 9.41249C12.4504 9.52499 12.3379 9.59999 12.2254 9.56249C12.1129 9.56249 12.0379 9.44999 12.0754 9.33749C12.0754 9.22499 12.1879 9.14999 12.3004 9.18749C12.4129 9.22499 12.4879 9.33749 12.4504 9.41249ZM11.7754 9.37499C11.7754 9.48749 11.7004 9.56249 11.6254 9.59999C11.5129 9.59999 11.4379 9.52499 11.4004 9.44999C11.4004 9.33749 11.4754 9.26249 11.5504 9.22499C11.6629 9.18749 11.7754 9.26249 11.7754 9.37499Z" fill="#428BC1"/>
<path d="M11.9258 12.5625C12.2364 12.5625 12.4883 12.3107 12.4883 12C12.4883 11.6893 12.2364 11.4375 11.9258 11.4375C11.6151 11.4375 11.3633 11.6893 11.3633 12C11.3633 12.3107 11.6151 12.5625 11.9258 12.5625Z" fill="#428BC1"/>
<path d="M11.925 9.375L11.85 10.9875L11.925 12L12.0375 10.9875L11.925 9.375ZM11.25 9.45L11.5875 11.0625L11.925 12L11.775 10.9875L11.25 9.45Z" fill="#428BC1"/>
<path d="M10.6129 9.7124L11.3629 11.1749L11.9254 11.9999L11.5129 11.0624L10.6129 9.7124ZM10.0879 10.1249L11.1754 11.3624L11.9254 11.9999L11.2879 11.2124L10.0879 10.1249Z" fill="#428BC1"/>
<path d="M9.67578 10.6875L11.0258 11.5875L11.9258 12L11.1008 11.4L9.67578 10.6875Z" fill="#428BC1"/>
<path d="M9.41328 11.3252L10.9508 11.8127L11.9258 12.0002L10.9883 11.6627L9.41328 11.3252ZM9.30078 12.0002L10.9508 12.0752L11.9258 12.0002L10.9508 11.9252L9.30078 12.0002Z" fill="#428BC1"/>
<path d="M9.41211 12.675L10.9871 12.3375L11.9246 12L10.9496 12.1875L9.41211 12.675ZM9.67461 13.3125L11.0996 12.6L11.9246 12L11.0246 12.4125L9.67461 13.3125Z" fill="#428BC1"/>
<path d="M10.0879 13.8375L11.2879 12.7875L11.9254 12L11.1754 12.6375L10.0879 13.8375ZM10.6129 14.2875L11.5129 12.9L11.9254 12L11.3629 12.825L10.6129 14.2875Z" fill="#428BC1"/>
<path d="M11.25 14.55L11.775 13.0125L11.925 12L11.5875 12.9375L11.25 14.55ZM11.925 14.625L12.0375 13.0125L11.925 12L11.85 13.0125L11.925 14.625ZM12.6 14.55L12.3 12.9375L11.925 12L12.1125 13.0125L12.6 14.55Z" fill="#428BC1"/>
<path d="M13.2383 14.2875L12.5258 12.825L11.9258 12L12.3758 12.9375L13.2383 14.2875ZM13.8008 13.8375L12.7133 12.6375L11.9258 12L12.6008 12.7875L13.8008 13.8375Z" fill="#428BC1"/>
<path d="M14.2133 13.3127L12.8633 12.4127L11.9258 12.0002L12.7508 12.6002L14.2133 13.3127ZM14.4758 12.6752L12.9383 12.1877L11.9258 12.0002L12.9008 12.3377L14.4758 12.6752ZM14.5508 12.0002L12.9383 11.8877L11.9258 12.0002L12.9383 12.0752L14.5508 12.0002ZM14.4758 11.3252L12.9008 11.6627L11.9258 12.0002L12.9383 11.8127L14.4758 11.3252Z" fill="#428BC1"/>
<path d="M14.2133 10.6876L12.7508 11.4001L11.9258 12.0001L12.8633 11.5876L14.2133 10.6876ZM13.8008 10.1626L12.6008 11.2126L11.9258 12.0001L12.7133 11.3626L13.8008 10.1626Z" fill="#428BC1"/>
<path d="M13.2383 9.7124L12.3758 11.0999L11.9258 11.9999L12.5258 11.1749L13.2383 9.7124Z" fill="#428BC1"/>
<path d="M12.6383 9.4502L12.1133 10.9877L11.9258 12.0002L12.3008 11.0627L12.6383 9.4502Z" fill="#428BC1"/>
</svg>
