<svg width="24" height="24" viewBox="0 0 24 24" fill="none" xmlns="http://www.w3.org/2000/svg">
<path d="M11.9266 0.75C7.05156 0.75 2.88906 3.9 1.35156 8.25H22.5766C21.0016 3.9 16.8391 0.75 11.9266 0.75Z" fill="#F2B200"/>
<path d="M11.9266 23.25C16.8391 23.25 21.0016 20.1375 22.5391 15.75H1.35156C2.88906 20.1375 7.05156 23.25 11.9266 23.25Z" fill="#83BF4F"/>
<path d="M1.34844 8.25C0.935937 9.4125 0.710938 10.6875 0.710938 12C0.710938 13.3125 0.935937 14.5875 1.34844 15.75H22.5734C22.9859 14.5875 23.2109 13.3125 23.2109 12C23.2109 10.6875 22.9859 9.4125 22.5734 8.25H1.34844Z" fill="white"/>
<path d="M11.9258 15C13.5826 15 14.9258 13.6569 14.9258 12C14.9258 10.3431 13.5826 9 11.9258 9C10.2689 9 8.92578 10.3431 8.92578 12C8.92578 13.6569 10.2689 15 11.9258 15Z" fill="#428BC1"/>
<path d="M11.9258 14.625C13.3755 14.625 14.5508 13.4497 14.5508 12C14.5508 10.5503 13.3755 9.375 11.9258 9.375C10.476 9.375 9.30078 10.5503 9.30078 12C9.30078 13.4497 10.476 14.625 11.9258 14.625Z" fill="white"/>
<path d="M10.9492 9.75C11.0528 9.75 11.1367 9.66605 11.1367 9.5625C11.1367 9.45895 11.0528 9.375 10.9492 9.375C10.8457 9.375 10.7617 9.45895 10.7617 9.5625C10.7617 9.66605 10.8457 9.75 10.9492 9.75Z" fill="#428BC1"/>
<path d="M10.3477 10.0879C10.4512 10.0879 10.5352 10.0039 10.5352 9.90039C10.5352 9.79684 10.4512 9.71289 10.3477 9.71289C10.2441 9.71289 10.1602 9.79684 10.1602 9.90039C10.1602 10.0039 10.2441 10.0879 10.3477 10.0879Z" fill="#428BC1"/>
<path d="M9.85938 10.5752C9.96293 10.5752 10.0469 10.4912 10.0469 10.3877C10.0469 10.2841 9.96293 10.2002 9.85938 10.2002C9.75582 10.2002 9.67188 10.2841 9.67188 10.3877C9.67188 10.4912 9.75582 10.5752 9.85938 10.5752Z" fill="#428BC1"/>
<path d="M9.52344 11.1748C9.62699 11.1748 9.71094 11.0909 9.71094 10.9873C9.71094 10.8838 9.62699 10.7998 9.52344 10.7998C9.41988 10.7998 9.33594 10.8838 9.33594 10.9873C9.33594 11.0909 9.41988 11.1748 9.52344 11.1748Z" fill="#428BC1"/>
<path d="M9.33594 11.8496C9.43949 11.8496 9.52344 11.7657 9.52344 11.6621C9.52344 11.5586 9.43949 11.4746 9.33594 11.4746C9.23238 11.4746 9.14844 11.5586 9.14844 11.6621C9.14844 11.7657 9.23238 11.8496 9.33594 11.8496Z" fill="#428BC1"/>
<path d="M9.33594 12.5254C9.43949 12.5254 9.52344 12.4414 9.52344 12.3379C9.52344 12.2343 9.43949 12.1504 9.33594 12.1504C9.23238 12.1504 9.14844 12.2343 9.14844 12.3379C9.14844 12.4414 9.23238 12.5254 9.33594 12.5254Z" fill="#428BC1"/>
<path d="M9.52344 13.2002C9.62699 13.2002 9.71094 13.1162 9.71094 13.0127C9.71094 12.9091 9.62699 12.8252 9.52344 12.8252C9.41988 12.8252 9.33594 12.9091 9.33594 13.0127C9.33594 13.1162 9.41988 13.2002 9.52344 13.2002Z" fill="#428BC1"/>
<path d="M9.85938 13.7998C9.96293 13.7998 10.0469 13.7159 10.0469 13.6123C10.0469 13.5088 9.96293 13.4248 9.85938 13.4248C9.75582 13.4248 9.67188 13.5088 9.67188 13.6123C9.67188 13.7159 9.75582 13.7998 9.85938 13.7998Z" fill="#428BC1"/>
<path d="M10.3477 14.2871C10.4512 14.2871 10.5352 14.2032 10.5352 14.0996C10.5352 13.9961 10.4512 13.9121 10.3477 13.9121C10.2441 13.9121 10.1602 13.9961 10.1602 14.0996C10.1602 14.2032 10.2441 14.2871 10.3477 14.2871Z" fill="#428BC1"/>
<path d="M10.9492 14.625C11.0528 14.625 11.1367 14.5411 11.1367 14.4375C11.1367 14.3339 11.0528 14.25 10.9492 14.25C10.8457 14.25 10.7617 14.3339 10.7617 14.4375C10.7617 14.5411 10.8457 14.625 10.9492 14.625Z" fill="#428BC1"/>
<path d="M11.5859 14.7754C11.6895 14.7754 11.7734 14.6914 11.7734 14.5879C11.7734 14.4843 11.6895 14.4004 11.5859 14.4004C11.4824 14.4004 11.3984 14.4843 11.3984 14.5879C11.3984 14.6914 11.4824 14.7754 11.5859 14.7754Z" fill="#428BC1"/>
<path d="M12.1094 14.6254C12.1094 14.5129 12.1844 14.4379 12.2594 14.4004C12.3719 14.4004 12.4469 14.4754 12.4844 14.5504C12.4844 14.6629 12.4094 14.7379 12.3344 14.7754C12.1844 14.8129 12.1094 14.7379 12.1094 14.6254Z" fill="#428BC1"/>
<path d="M12.9375 14.625C13.0411 14.625 13.125 14.5411 13.125 14.4375C13.125 14.3339 13.0411 14.25 12.9375 14.25C12.8339 14.25 12.75 14.3339 12.75 14.4375C12.75 14.5411 12.8339 14.625 12.9375 14.625Z" fill="#428BC1"/>
<path d="M13.5352 14.2871C13.6387 14.2871 13.7227 14.2032 13.7227 14.0996C13.7227 13.9961 13.6387 13.9121 13.5352 13.9121C13.4316 13.9121 13.3477 13.9961 13.3477 14.0996C13.3477 14.2032 13.4316 14.2871 13.5352 14.2871Z" fill="#428BC1"/>
<path d="M14.0234 13.7998C14.127 13.7998 14.2109 13.7159 14.2109 13.6123C14.2109 13.5088 14.127 13.4248 14.0234 13.4248C13.9199 13.4248 13.8359 13.5088 13.8359 13.6123C13.8359 13.7159 13.9199 13.7998 14.0234 13.7998Z" fill="#428BC1"/>
<path d="M14.3594 13.2002C14.4629 13.2002 14.5469 13.1162 14.5469 13.0127C14.5469 12.9091 14.4629 12.8252 14.3594 12.8252C14.2558 12.8252 14.1719 12.9091 14.1719 13.0127C14.1719 13.1162 14.2558 13.2002 14.3594 13.2002Z" fill="#428BC1"/>
<path d="M14.5469 12.5254C14.6504 12.5254 14.7344 12.4414 14.7344 12.3379C14.7344 12.2343 14.6504 12.1504 14.5469 12.1504C14.4433 12.1504 14.3594 12.2343 14.3594 12.3379C14.3594 12.4414 14.4433 12.5254 14.5469 12.5254Z" fill="#428BC1"/>
<path d="M14.5492 11.8496C14.4367 11.8496 14.3617 11.7746 14.3242 11.6996C14.3242 11.5871 14.3992 11.5121 14.4742 11.4746C14.5867 11.4746 14.6617 11.5496 14.6992 11.6246C14.7367 11.7371 14.6617 11.8121 14.5492 11.8496Z" fill="#428BC1"/>
<path d="M14.3594 11.1748C14.4629 11.1748 14.5469 11.0909 14.5469 10.9873C14.5469 10.8838 14.4629 10.7998 14.3594 10.7998C14.2558 10.7998 14.1719 10.8838 14.1719 10.9873C14.1719 11.0909 14.2558 11.1748 14.3594 11.1748Z" fill="#428BC1"/>
<path d="M14.0234 10.5752C14.127 10.5752 14.2109 10.4912 14.2109 10.3877C14.2109 10.2841 14.127 10.2002 14.0234 10.2002C13.9199 10.2002 13.8359 10.2841 13.8359 10.3877C13.8359 10.4912 13.9199 10.5752 14.0234 10.5752Z" fill="#428BC1"/>
<path d="M13.5352 10.0879C13.6387 10.0879 13.7227 10.0039 13.7227 9.90039C13.7227 9.79684 13.6387 9.71289 13.5352 9.71289C13.4316 9.71289 13.3477 9.79684 13.3477 9.90039C13.3477 10.0039 13.4316 10.0879 13.5352 10.0879Z" fill="#428BC1"/>
<path d="M13.1234 9.63749C13.0859 9.74999 12.9734 9.78749 12.8609 9.74999C12.7484 9.71249 12.7109 9.59999 12.7484 9.48749C12.7859 9.37499 12.8984 9.33749 13.0109 9.37499C13.1234 9.44999 13.1609 9.56249 13.1234 9.63749ZM12.4484 9.41249C12.4484 9.52499 12.3359 9.59999 12.2234 9.56249C12.1109 9.56249 12.0359 9.44999 12.0734 9.33749C12.0734 9.22499 12.1859 9.14999 12.2984 9.18749C12.4109 9.22499 12.4859 9.33749 12.4484 9.41249ZM11.7734 9.37499C11.7734 9.48749 11.6984 9.56249 11.6234 9.59999C11.5109 9.59999 11.4359 9.52499 11.3984 9.44999C11.3984 9.33749 11.4734 9.26249 11.5484 9.22499C11.6609 9.18749 11.7734 9.26249 11.7734 9.37499Z" fill="#428BC1"/>
<path d="M11.9219 12.5625C12.2325 12.5625 12.4844 12.3107 12.4844 12C12.4844 11.6893 12.2325 11.4375 11.9219 11.4375C11.6112 11.4375 11.3594 11.6893 11.3594 12C11.3594 12.3107 11.6112 12.5625 11.9219 12.5625Z" fill="#428BC1"/>
<path d="M11.925 9.375L11.85 10.9875L11.925 12L12.0375 10.9875L11.925 9.375ZM11.25 9.45L11.5875 11.0625L11.925 12L11.775 10.9875L11.25 9.45Z" fill="#428BC1"/>
<path d="M10.6109 9.71289L11.3609 11.1754L11.9234 12.0004L11.5109 11.0629L10.6109 9.71289ZM10.0859 10.1254L11.1734 11.3629L11.9234 12.0004L11.2859 11.2129L10.0859 10.1254Z" fill="#428BC1"/>
<path d="M9.67188 10.6875L11.0219 11.5875L11.9219 12L11.0969 11.4L9.67188 10.6875Z" fill="#428BC1"/>
<path d="M9.40938 11.3252L10.9469 11.8127L11.9219 12.0002L10.9844 11.6627L9.40938 11.3252ZM9.29688 12.0002L10.9469 12.0752L11.9219 12.0002L10.9469 11.9252L9.29688 12.0002Z" fill="#428BC1"/>
<path d="M9.41016 12.675L10.9852 12.3375L11.9227 12L10.9477 12.1875L9.41016 12.675ZM9.67266 13.3125L11.0977 12.6L11.9227 12L11.0227 12.4125L9.67266 13.3125Z" fill="#428BC1"/>
<path d="M10.0859 13.8375L11.2859 12.7875L11.9234 12L11.1734 12.6375L10.0859 13.8375ZM10.6109 14.2875L11.5109 12.9L11.9234 12L11.3609 12.825L10.6109 14.2875Z" fill="#428BC1"/>
<path d="M11.25 14.55L11.775 13.0125L11.925 12L11.5875 12.9375L11.25 14.55ZM11.925 14.625L12.0375 13.0125L11.925 12L11.85 13.0125L11.925 14.625ZM12.6 14.55L12.3 12.9375L11.925 12L12.1125 13.0125L12.6 14.55Z" fill="#428BC1"/>
<path d="M13.2344 14.2875L12.5219 12.825L11.9219 12L12.3719 12.9375L13.2344 14.2875ZM13.7969 13.8375L12.7094 12.6375L11.9219 12L12.5969 12.7875L13.7969 13.8375Z" fill="#428BC1"/>
<path d="M14.2094 13.3127L12.8594 12.4127L11.9219 12.0002L12.7469 12.6002L14.2094 13.3127ZM14.4719 12.6752L12.9344 12.1877L11.9219 12.0002L12.8969 12.3377L14.4719 12.6752ZM14.5469 12.0002L12.9344 11.8877L11.9219 12.0002L12.9344 12.0752L14.5469 12.0002ZM14.4719 11.3252L12.8969 11.6627L11.9219 12.0002L12.9344 11.8127L14.4719 11.3252Z" fill="#428BC1"/>
<path d="M14.2094 10.6871L12.7469 11.3996L11.9219 11.9996L12.8594 11.5871L14.2094 10.6871ZM13.7969 10.1621L12.5969 11.2121L11.9219 11.9996L12.7094 11.3621L13.7969 10.1621Z" fill="#428BC1"/>
<path d="M13.2344 9.71289L12.3719 11.1004L11.9219 12.0004L12.5219 11.1754L13.2344 9.71289Z" fill="#428BC1"/>
<path d="M12.6344 9.4502L12.1094 10.9877L11.9219 12.0002L12.2969 11.0627L12.6344 9.4502Z" fill="#428BC1"/>
</svg>

