<svg width="24" height="24" viewBox="0 0 24 24" fill="none" xmlns="http://www.w3.org/2000/svg">
<path d="M11.175 19.175L4.225 12.225C4.14167 12.1417 4.08333 12.0583 4.05 11.975C4.01667 11.8917 4 11.8 4 11.7C4 11.6 4.01667 11.5083 4.05 11.425C4.08333 11.3417 4.14167 11.2583 4.225 11.175L11.2 4.2C11.3333 4.06667 11.5 4 11.7 4C11.9 4 12.075 4.075 12.225 4.225C12.375 4.375 12.45 4.55 12.45 4.75C12.45 4.95 12.375 5.125 12.225 5.275L6.55 10.95H18.95C19.1667 10.95 19.3458 11.0208 19.4875 11.1625C19.6292 11.3042 19.7 11.4833 19.7 11.7C19.7 11.9167 19.6292 12.0958 19.4875 12.2375C19.3458 12.3792 19.1667 12.45 18.95 12.45H6.55L12.25 18.15C12.3833 18.2833 12.45 18.45 12.45 18.65C12.45 18.85 12.375 19.025 12.225 19.175C12.075 19.325 11.9 19.4 11.7 19.4C11.5 19.4 11.325 19.325 11.175 19.175Z" fill="#141414"/>
</svg>
