<svg width="24" height="24" viewBox="0 0 24 24" fill="none" xmlns="http://www.w3.org/2000/svg">
<path d="M7 17C5.58333 17 4.39583 16.5208 3.4375 15.5625C2.47917 14.6042 2 13.4167 2 12C2 10.5833 2.47917 9.39583 3.4375 8.4375C4.39583 7.47917 5.58333 7 7 7H10.5C10.7167 7 10.8958 7.07083 11.0375 7.2125C11.1792 7.35417 11.25 7.53333 11.25 7.75C11.25 7.96667 11.1792 8.14583 11.0375 8.2875C10.8958 8.42917 10.7167 8.5 10.5 8.5H7C6 8.5 5.16667 8.83333 4.5 9.5C3.83333 10.1667 3.5 11 3.5 12C3.5 13 3.83333 13.8333 4.5 14.5C5.16667 15.1667 6 15.5 7 15.5H10.5C10.7167 15.5 10.8958 15.5708 11.0375 15.7125C11.1792 15.8542 11.25 16.0333 11.25 16.25C11.25 16.4667 11.1792 16.6458 11.0375 16.7875C10.8958 16.9292 10.7167 17 10.5 17H7ZM8.875 12.75C8.65833 12.75 8.47917 12.6792 8.3375 12.5375C8.19583 12.3958 8.125 12.2167 8.125 12C8.125 11.7833 8.19583 11.6042 8.3375 11.4625C8.47917 11.3208 8.65833 11.25 8.875 11.25H15.125C15.3417 11.25 15.5208 11.3208 15.6625 11.4625C15.8042 11.6042 15.875 11.7833 15.875 12C15.875 12.2167 15.8042 12.3958 15.6625 12.5375C15.5208 12.6792 15.3417 12.75 15.125 12.75H8.875ZM13.5 17C13.2833 17 13.1042 16.9292 12.9625 16.7875C12.8208 16.6458 12.75 16.4667 12.75 16.25C12.75 16.0333 12.8208 15.8542 12.9625 15.7125C13.1042 15.5708 13.2833 15.5 13.5 15.5H17C18 15.5 18.8333 15.1667 19.5 14.5C20.1667 13.8333 20.5 13 20.5 12C20.5 11 20.1667 10.1667 19.5 9.5C18.8333 8.83333 18 8.5 17 8.5H13.5C13.2833 8.5 13.1042 8.42917 12.9625 8.2875C12.8208 8.14583 12.75 7.96667 12.75 7.75C12.75 7.53333 12.8208 7.35417 12.9625 7.2125C13.1042 7.07083 13.2833 7 13.5 7H17C18.4167 7 19.6042 7.47917 20.5625 8.4375C21.5208 9.39583 22 10.5833 22 12C22 13.4167 21.5208 14.6042 20.5625 15.5625C19.6042 16.5208 18.4167 17 17 17H13.5Z" fill="#7633FF"/>
</svg>
