<svg width="60" height="60" viewBox="0 0 60 60" fill="none" xmlns="http://www.w3.org/2000/svg">
<circle cx="30" cy="30" r="29.5" stroke="#E4E4E5"/>
<path d="M30.0073 26.9994H35.2873C35.5303 26.9994 35.7673 27.0227 35.9968 27.0677V25.1274C35.9968 24.0924 36.8353 23.2524 37.8695 23.2524H38.735C38.882 23.2524 39.002 23.1324 39.002 22.9854V22.1132C39.002 21.9122 39.1648 21.7494 39.365 21.7494C39.992 21.7494 40.4998 22.2579 40.4998 22.8849V24.3767C40.4998 25.4117 39.6613 26.2517 38.627 26.2517H37.7623C37.7272 26.2517 37.6925 26.2586 37.6601 26.272C37.6277 26.2854 37.5983 26.3051 37.5735 26.3299C37.5487 26.3547 37.529 26.3841 37.5156 26.4165C37.5022 26.4489 37.4953 26.4836 37.4953 26.5187V27.7344C37.9544 28.0781 38.3271 28.5241 38.5836 29.0371C38.8401 29.5501 38.9733 30.1159 38.9728 30.6894V36.0744C38.9728 36.5116 38.8241 36.9358 38.5513 37.2774L36.1258 40.3134C36.0795 40.3715 36.0208 40.4184 35.9539 40.4506C35.887 40.4828 35.8137 40.4995 35.7395 40.4994H34.8268C34.7944 40.4995 34.7628 40.4905 34.7353 40.4735C34.7077 40.4566 34.6855 40.4323 34.671 40.4034C34.6565 40.3745 34.6504 40.3422 34.6533 40.31C34.6561 40.2778 34.6679 40.2471 34.6873 40.2212L36.3665 37.9794C36.6529 37.5975 36.7759 37.1175 36.7084 36.6449C36.6409 36.1723 36.3884 35.7459 36.0065 35.4594L34.1225 34.0442C33.8677 33.8528 33.5577 33.7493 33.239 33.7494H27.236C26.7291 33.75 26.2274 33.6464 25.7623 33.4449C25.7263 33.4295 25.6866 33.4253 25.6482 33.4328C25.6098 33.4403 25.5745 33.4592 25.547 33.4869L24.887 34.1469C24.8399 34.194 24.8027 34.2501 24.7777 34.3119C24.7527 34.3737 24.7404 34.4399 24.7415 34.5065C24.7427 34.5731 24.7572 34.6388 24.7842 34.6997C24.8113 34.7606 24.8503 34.8154 24.899 34.8609L25.8455 35.8164C25.9629 35.9336 26.1221 35.9995 26.288 35.9994H26.6308C26.8288 35.9994 26.9893 36.1607 26.9893 36.3587V37.1409C26.9893 37.1881 26.98 37.2348 26.9619 37.2783C26.9438 37.3218 26.9174 37.3614 26.884 37.3947C26.8506 37.428 26.811 37.4544 26.7674 37.4724C26.7238 37.4903 26.6771 37.4995 26.63 37.4994H26.288C26.009 37.5002 25.7326 37.4456 25.4748 37.3388C25.2171 37.2319 24.9831 37.0749 24.7865 36.8769L23.8528 35.9349C23.4692 35.5562 23.2506 35.0414 23.2445 34.5024C23.2433 34.2395 23.2943 33.9789 23.3946 33.7358C23.4949 33.4928 23.6425 33.272 23.8288 33.0864L24.3095 32.6042C24.3435 32.57 24.3637 32.5245 24.3663 32.4764C24.3689 32.4283 24.3538 32.3809 24.3238 32.3432C23.9078 31.8205 23.6404 31.1953 23.5498 30.5334L22.7173 24.4997C22.7126 24.4661 22.7004 24.4341 22.6816 24.406C22.6627 24.3779 22.6377 24.3544 22.6084 24.3374C22.5791 24.3204 22.5463 24.3104 22.5126 24.3079C22.4788 24.3055 22.4449 24.3108 22.4135 24.3234L21.3425 24.7554L20.3878 23.0379L21.5713 21.7554H20.966C20.9395 21.7553 20.9133 21.7495 20.8893 21.7383C20.8653 21.7272 20.8439 21.711 20.8267 21.6908C20.8095 21.6707 20.7968 21.6471 20.7895 21.6216C20.7822 21.5961 20.7805 21.5694 20.7845 21.5432C20.8353 21.1844 21.0138 20.856 21.2873 20.6183C21.5608 20.3806 21.9109 20.2497 22.2733 20.2494H22.8133V19.7019C22.8134 19.6657 22.8232 19.6301 22.8417 19.599C22.8602 19.5678 22.8868 19.5422 22.9186 19.5248C22.9504 19.5074 22.9863 19.4989 23.0225 19.5001C23.0587 19.5013 23.0939 19.5122 23.1245 19.5317L24.08 20.2472H28.0003C28.1765 20.2472 28.3198 20.3904 28.3198 20.5674C28.3198 21.0647 28.061 21.5004 27.671 21.7487H29.672C29.852 21.7487 29.9983 21.8957 29.9983 22.0757C29.9988 22.4567 29.9048 22.8319 29.7247 23.1676C29.5445 23.5033 29.284 23.7891 28.9663 23.9994H30.9028C31.0738 23.9994 31.2118 24.1382 31.2118 24.3092C31.2123 24.856 31.0638 25.3926 30.7822 25.8613C30.5006 26.33 30.0965 26.7131 29.6135 26.9694C29.7425 26.9889 29.8745 26.9994 30.008 26.9994H30.0073ZM22.8748 22.9142C22.9742 22.9142 23.0696 22.8747 23.1399 22.8043C23.2102 22.734 23.2498 22.6386 23.2498 22.5392V22.1244C23.252 22.0738 23.244 22.0233 23.2262 21.9759C23.2084 21.9284 23.1812 21.8851 23.1462 21.8485C23.1111 21.8119 23.0691 21.7827 23.0225 21.7628C22.9759 21.7429 22.9258 21.7327 22.8751 21.7327C22.8245 21.7327 22.7743 21.7429 22.7278 21.7628C22.6812 21.7827 22.6391 21.8119 22.6041 21.8485C22.5691 21.8851 22.5419 21.9284 22.5241 21.9759C22.5063 22.0233 22.4982 22.0738 22.5005 22.1244V22.5399C22.5005 22.6394 22.54 22.7348 22.6103 22.8051C22.6807 22.8754 22.7761 22.9149 22.8755 22.9149L22.8748 22.9142Z" fill="#141414"/>
<path d="M20.12 23.3281L19.7128 23.7706C19.6264 23.864 19.5635 23.9765 19.5293 24.099C19.495 24.2214 19.4902 24.3503 19.5155 24.4749C19.6205 24.9901 20.1305 25.2459 20.618 25.0486L20.9923 24.8979L20.12 23.3281ZM22.7188 29.9994H22.2388C21.9767 29.9995 21.7173 30.0512 21.4752 30.1516C21.2331 30.252 21.0132 30.3991 20.828 30.5845C20.6428 30.7699 20.496 30.99 20.3959 31.2321C20.2957 31.4743 20.2443 31.7338 20.2445 31.9959V33.7659C20.2445 34.3336 20.4658 34.8676 20.867 35.2689L21.161 35.5629C21.1875 35.5894 21.2189 35.6105 21.2536 35.6248C21.2882 35.6392 21.3253 35.6466 21.3628 35.6466C21.4002 35.6466 21.4374 35.6392 21.472 35.6248C21.5066 35.6105 21.538 35.5894 21.5645 35.5629L22.2193 34.9059C22.2727 34.8523 22.3027 34.7798 22.3027 34.7041C22.3027 34.6285 22.2727 34.5559 22.2193 34.5024L21.9253 34.2084C21.8083 34.0908 21.7425 33.9317 21.7423 33.7659V31.9959C21.7423 31.7214 21.965 31.4994 22.2388 31.4994H23.0143C22.9166 31.2192 22.847 30.93 22.8065 30.6361L22.7188 29.9994ZM32.2318 34.5001V35.3814C32.2317 35.4756 32.2131 35.5689 32.1769 35.6559C32.1407 35.7429 32.0878 35.8219 32.021 35.8884L31.3595 36.5469C31.1605 36.7453 31.0027 36.9813 30.8953 37.241C30.788 37.5008 30.7331 37.7793 30.734 38.0604V38.7631C30.734 38.8936 30.839 39.0001 30.9703 39.0001H31.9955C32.0582 38.9999 32.1183 38.9749 32.1626 38.9304C32.2069 38.886 32.2318 38.8259 32.2318 38.7631V38.0596C32.2318 37.8901 32.2993 37.7274 32.4193 37.6074L34.6468 35.3769L33.6718 34.6449C33.547 34.551 33.3951 34.5002 33.239 34.5001H32.2318Z" fill="#141414"/>
</svg>
