<svg width="24" height="24" viewBox="0 0 24 24" fill="none" xmlns="http://www.w3.org/2000/svg">
<g clip-path="url(#clip0_21191_2311)">
<path d="M18.1949 24.0007H5.80418C5.67798 24.0008 5.553 23.9761 5.4364 23.9278C5.31979 23.8796 5.21384 23.8088 5.1246 23.7196C5.03537 23.6303 4.96461 23.5244 4.91636 23.4078C4.86811 23.2912 4.84333 23.1662 4.84343 23.04V13.872C4.84343 13.341 5.27318 12.9075 5.80418 12.9075H6.96818V11.427C6.96818 8.6535 9.22568 6.396 11.9992 6.396C14.7727 6.396 17.0302 8.6535 17.0302 11.427V12.9075H18.1942C18.7252 12.9075 19.1549 13.341 19.1549 13.872V23.04C19.155 23.1662 19.1302 23.2912 19.082 23.4078C19.0337 23.5244 18.963 23.6303 18.8738 23.7196C18.7845 23.8088 18.6786 23.8796 18.562 23.9278C18.4453 23.9761 18.3204 24.0008 18.1942 24.0007H18.1949ZM12.6292 18.9307C13.7699 18.2865 13.3124 16.5443 11.9999 16.5443C10.6912 16.548 10.2344 18.2827 11.3707 18.9307V20.1727C11.3707 21.009 12.6284 21.009 12.6284 20.1727L12.6292 18.9307ZM9.85568 12.9067H14.1487V11.4263C14.1487 10.2428 13.1842 9.282 11.9999 9.282C10.8157 9.282 9.85568 10.2428 9.85568 11.4263V12.9067ZM4.54718 11.544H1.55918C1.07093 11.544 0.680176 11.1495 0.680176 10.665C0.680176 10.1805 1.07093 9.786 1.55918 9.786H4.54718C5.03168 9.786 5.42618 10.1805 5.42618 10.665C5.42618 11.1495 5.03168 11.544 4.54718 11.544ZM6.65243 6.84075C6.44915 6.84113 6.25238 6.76907 6.09743 6.6375L3.73043 4.692C3.64142 4.61881 3.56776 4.52874 3.51368 4.42699C3.4596 4.32523 3.42616 4.21379 3.41529 4.09907C3.40441 3.98435 3.41632 3.86861 3.45032 3.75851C3.48433 3.64841 3.53976 3.54611 3.61343 3.4575C3.68635 3.36822 3.77621 3.29424 3.87783 3.23982C3.97945 3.1854 4.09083 3.1516 4.20556 3.14038C4.32029 3.12916 4.43611 3.14073 4.54635 3.17443C4.65659 3.20813 4.75908 3.2633 4.84793 3.33675L7.21493 5.28225C7.85168 5.80575 7.47668 6.84075 6.65243 6.837V6.84075ZM11.9999 4.77C11.7669 4.7696 11.5436 4.67687 11.3788 4.51211C11.2141 4.34735 11.1213 4.124 11.1209 3.891V0.879C11.1209 0.3945 11.5154 0 11.9999 0C12.4844 0 12.8789 0.3945 12.8789 0.879V3.891C12.8789 4.3755 12.4844 4.77 11.9999 4.77ZM17.3474 6.84075C16.5194 6.84075 16.1482 5.80575 16.7849 5.28225L19.1519 3.33675C20.0579 2.59425 21.1717 3.95025 20.2694 4.6965L17.9024 6.642C17.7463 6.77109 17.55 6.84165 17.3474 6.8415V6.84075ZM22.4414 11.544H19.4257C18.9374 11.544 18.5467 11.1495 18.5467 10.665C18.5467 10.1805 18.9374 9.786 19.4257 9.786H22.4414C22.9297 9.786 23.3204 10.1805 23.3204 10.665C23.3204 11.1495 22.9297 11.544 22.4414 11.544Z" fill="#E4D6FF"/>
</g>
<defs>
<clipPath id="clip0_21191_2311">
<rect width="24" height="24" fill="white"/>
</clipPath>
</defs>
</svg>
