<svg width="24" height="24" viewBox="0 0 24 24" fill="none" xmlns="http://www.w3.org/2000/svg">
<path d="M15.7139 15.8314C15.5677 15.66 15.4947 15.4714 15.4947 15.2657C15.4947 15.06 15.5677 14.88 15.7139 14.7257L17.5647 12.7714H10.1126C9.90157 12.7714 9.72721 12.6984 9.58953 12.5523C9.4512 12.407 9.38204 12.2229 9.38204 12C9.38204 11.7771 9.4512 11.5927 9.58953 11.4466C9.72721 11.3013 9.90157 11.2286 10.1126 11.2286H17.5647L15.7139 9.24857C15.5677 9.09429 15.4947 8.91429 15.4947 8.70857C15.4947 8.50286 15.5677 8.32286 15.7139 8.16857C15.86 8.01429 16.0304 7.93714 16.2253 7.93714C16.4201 7.93714 16.5824 8.00571 16.7123 8.14286L19.7565 11.3571C19.8376 11.4429 19.8987 11.5413 19.9396 11.6523C19.9799 11.7641 20 11.88 20 12C20 12.12 19.9799 12.2355 19.9396 12.3466C19.8987 12.4584 19.8376 12.5571 19.7565 12.6429L16.7123 15.8571C16.5662 16.0286 16.4 16.1057 16.2136 16.0886C16.0265 16.0714 15.86 15.9857 15.7139 15.8314ZM5.75342 21C5.26636 21 4.85236 20.82 4.51142 20.46C4.17047 20.1 4 19.6629 4 19.1486V4.85143C4 4.33714 4.17047 3.9 4.51142 3.54C4.85236 3.18 5.26636 3 5.75342 3H11.5738C11.7686 3 11.9391 3.07269 12.0852 3.21806C12.2314 3.36411 12.3044 3.54857 12.3044 3.77143C12.3044 3.99429 12.2314 4.1784 12.0852 4.32377C11.9391 4.46983 11.7686 4.54286 11.5738 4.54286H5.75342C5.68848 4.54286 5.62354 4.57714 5.5586 4.64571C5.49366 4.71429 5.46119 4.78286 5.46119 4.85143V19.1486C5.46119 19.2171 5.49366 19.2857 5.5586 19.3543C5.62354 19.4229 5.68848 19.4571 5.75342 19.4571H11.5738C11.7686 19.4571 11.9391 19.5298 12.0852 19.6752C12.2314 19.8213 12.3044 20.0057 12.3044 20.2286C12.3044 20.4514 12.2314 20.6359 12.0852 20.7819C11.9391 20.9273 11.7686 21 11.5738 21H5.75342Z" fill="#141414"/>
</svg>
