<svg width="178" height="183" viewBox="0 0 178 183" fill="none" xmlns="http://www.w3.org/2000/svg">
<g clip-path="url(#clip0_3007_23837)">
<path d="M160.297 177.29C160.971 177.336 161.344 176.438 160.834 175.915L160.783 175.699C160.79 175.682 160.797 175.665 160.803 175.647C161.485 173.906 163.795 173.918 164.471 175.662C165.071 177.21 165.835 178.761 166.023 180.397C166.107 181.12 166.069 181.856 165.919 182.565C167.325 179.275 168.065 175.683 168.065 172.07C168.065 171.163 168.018 170.255 167.923 169.35C167.846 168.609 167.738 167.873 167.599 167.144C166.847 163.202 165.218 159.447 162.868 156.311C161.738 155.649 160.797 154.615 160.228 153.376C160.023 152.929 159.863 152.448 159.787 151.958C159.916 151.976 160.272 149.878 160.175 149.75C160.354 149.458 160.675 149.314 160.87 149.029C161.843 147.616 163.184 147.863 163.884 149.784C165.379 150.592 165.393 151.933 164.476 153.222C163.892 154.043 163.812 155.153 163.3 156.031C163.353 156.103 163.407 156.173 163.46 156.245C164.426 157.573 165.262 159 165.966 160.499C165.767 158.833 166.061 156.826 166.562 155.532C167.133 154.058 168.202 152.816 169.143 151.542C170.274 150.011 172.593 150.679 172.792 152.619C172.794 152.638 172.796 152.657 172.798 152.676C172.658 152.76 172.521 152.85 172.387 152.945C171.624 153.486 171.888 154.754 172.792 154.903L172.812 154.906C172.762 155.446 172.676 155.981 172.549 156.507C173.757 161.512 171.149 163.334 167.426 163.416C167.344 163.461 167.264 163.507 167.182 163.549C167.559 164.687 167.86 165.855 168.084 167.038C168.284 168.083 168.423 169.14 168.501 170.201C168.598 171.54 168.589 172.886 168.484 174.222L168.49 174.175C168.758 172.703 169.504 171.328 170.587 170.375C172.201 168.955 174.48 168.432 176.221 167.29C177.059 166.741 178.133 167.451 177.987 168.492L177.98 168.542C177.72 168.654 177.468 168.785 177.223 168.932C177.083 169.017 176.946 169.106 176.812 169.201C176.049 169.742 176.313 171.01 177.217 171.159L177.238 171.163C177.253 171.165 177.265 171.167 177.28 171.17C176.835 172.301 176.216 173.351 175.44 174.256C174.685 178.625 171.442 179.039 167.972 177.767H167.97C167.591 179.537 167.036 181.267 166.324 182.915H160.445C160.424 182.845 160.405 182.773 160.386 182.703C160.929 182.739 161.477 182.705 162.012 182.599C161.576 182.025 161.14 181.447 160.704 180.874C160.693 180.862 160.685 180.851 160.676 180.84C160.455 180.546 160.232 180.255 160.01 179.962L160.01 179.961C159.997 179.06 160.097 178.162 160.297 177.291L160.297 177.29V177.29Z" fill="#F2F2F2"/>
<path d="M52.123 182.584C52.123 182.815 52.296 183 52.5113 183H177.567C177.782 183 177.955 182.815 177.955 182.584C177.955 182.353 177.782 182.168 177.567 182.168H52.5113C52.296 182.168 52.123 182.353 52.123 182.584Z" fill="#CCCCCC"/>
<path d="M71.0992 182.823H13.5374C6.51875 182.823 0.808594 176.705 0.808594 169.185V36.6457C0.808594 29.1258 6.51875 23.0078 13.5374 23.0078H71.0992C78.1178 23.0078 83.8279 29.1258 83.8279 36.6457V169.185C83.8279 176.705 78.1178 182.823 71.0992 182.823Z" fill="#3F3D56"/>
<path d="M83.8275 71.7598C83.5306 71.7598 83.2891 72.0185 83.2891 72.3367V90.7991C83.2891 91.1173 83.5306 91.376 83.8275 91.376C84.1245 91.376 84.366 91.1173 84.366 90.7991V72.3367C84.366 72.0185 84.1245 71.7598 83.8275 71.7598Z" fill="#3F3D56"/>
<path d="M82.6156 36.6456V169.182C82.6156 175.728 77.8608 181.082 71.8485 181.497H71.8458C71.757 181.503 71.6681 181.509 71.5766 181.512C71.4177 181.52 71.2589 181.523 71.0973 181.523C71.0973 181.523 70.505 181.477 69.4226 181.391C68.3295 181.304 66.7382 181.174 64.7539 181.004C64.1589 180.955 63.5315 180.9 62.8692 180.842C61.5499 180.727 60.1013 180.6 58.5478 180.456C57.9285 180.401 57.2877 180.341 56.6335 180.28C53.2894 179.971 49.5442 179.611 45.5944 179.201C44.9267 179.135 44.2536 179.065 43.5751 178.993C43.3974 178.973 43.2169 178.956 43.0366 178.936C40.2202 178.639 2.01953 170.729 2.01953 169.182V36.6456C2.01953 29.829 7.17559 24.3047 13.5379 24.3047H20.4144C21.5129 24.3047 22.396 25.222 22.4903 26.3961C22.4983 26.474 22.5064 26.5519 22.5199 26.6298C22.7191 27.8097 23.7288 28.6318 24.8488 28.6318H59.7863C60.9064 28.6318 61.916 27.8097 62.1153 26.6298C62.1287 26.5519 62.1368 26.474 62.1449 26.3961C62.2391 25.222 63.1223 24.3047 64.2208 24.3047H71.0973C77.4596 24.3047 82.6156 29.829 82.6156 36.6456Z" fill="white"/>
<path d="M0.53849 57.9131C0.241504 57.9131 0 58.1718 0 58.49V63.1056C0 63.4238 0.241507 63.6826 0.53849 63.6826C0.835472 63.6826 1.07698 63.4238 1.07698 63.1056V58.49C1.07698 58.1718 0.835472 57.9131 0.53849 57.9131Z" fill="#3F3D56"/>
<path d="M0.53849 71.7598C0.241504 71.7598 0 72.0185 0 72.3367V81.2794C0 81.5976 0.241507 81.8564 0.53849 81.8564C0.835472 81.8564 1.07698 81.5976 1.07698 81.2794V72.3367C1.07698 72.0185 0.835472 71.7598 0.53849 71.7598Z" fill="#3F3D56"/>
<path d="M0.53849 84.4531C0.241504 84.4531 0 84.7119 0 85.0301V93.9728C0 94.291 0.241507 94.5497 0.53849 94.5497C0.835472 94.5497 1.07698 94.291 1.07698 93.9728V85.0301C1.07698 84.7119 0.835472 84.4531 0.53849 84.4531Z" fill="#3F3D56"/>
<path d="M20.2275 26.3252H9.92934C9.87344 26.3252 9.82812 26.3737 9.82812 26.4336V27.6591C9.82812 27.719 9.87344 27.7676 9.92934 27.7676H20.2275C20.2834 27.7676 20.3287 27.719 20.3287 27.6591V26.4336C20.3287 26.3737 20.2834 26.3252 20.2275 26.3252Z" fill="#E6E6E6"/>
<path d="M65.9227 27.7678C66.5175 27.7678 66.9997 27.2511 66.9997 26.6139C66.9997 25.9766 66.5175 25.46 65.9227 25.46C65.3279 25.46 64.8457 25.9766 64.8457 26.6139C64.8457 27.2511 65.3279 27.7678 65.9227 27.7678Z" fill="#E6E6E6"/>
<path d="M68.8836 27.7678C69.4784 27.7678 69.9606 27.2511 69.9606 26.6139C69.9606 25.9766 69.4784 25.46 68.8836 25.46C68.2888 25.46 67.8066 25.9766 67.8066 26.6139C67.8066 27.2511 68.2888 27.7678 68.8836 27.7678Z" fill="#E6E6E6"/>
<path d="M71.8465 27.7678C72.4413 27.7678 72.9235 27.2511 72.9235 26.6139C72.9235 25.9766 72.4413 25.46 71.8465 25.46C71.2517 25.46 70.7695 25.9766 70.7695 26.6139C70.7695 27.2511 71.2517 27.7678 71.8465 27.7678Z" fill="#E6E6E6"/>
<path d="M65.0217 104.352H19.3441C18.6245 104.352 18.0391 103.725 18.0391 102.954C18.0391 102.183 18.6245 101.556 19.3441 101.556H65.0217C65.7413 101.556 66.3268 102.183 66.3268 102.954C66.3268 103.725 65.7413 104.352 65.0217 104.352Z" fill="#E6E6E6"/>
<path d="M42.3474 158.535C52.7986 158.535 61.271 149.458 61.271 138.26C61.271 127.063 52.7986 117.985 42.3474 117.985C31.8962 117.985 23.4238 127.063 23.4238 138.26C23.4238 149.458 31.8962 158.535 42.3474 158.535Z" fill="#6C63FF"/>
<path d="M45.3532 131.64C43.7562 131.71 41.9507 131.828 40.7703 133.141C39.7448 134.281 39.5201 135.974 40.56 137.192C41.6027 138.413 43.2238 138.578 44.4258 139.531C45.837 140.649 45.6303 142.862 44.2646 143.922C42.6541 145.172 40.5748 144.589 39.1025 143.4C38.7252 143.095 38.359 143.778 38.732 144.079C40.0511 145.144 41.7724 145.738 43.4033 145.228C44.8753 144.768 46.0163 143.482 46.1323 141.809C46.1877 141.011 45.9759 140.2 45.5126 139.57C45.0235 138.905 44.319 138.496 43.6069 138.162C42.381 137.589 40.2702 136.847 40.6267 134.98C41.0587 132.717 43.6296 132.502 45.3532 132.427C45.824 132.406 45.8264 131.619 45.3532 131.64L45.3532 131.64Z" fill="white"/>
<path d="M42.3907 130.57L42.3203 147.837C42.3183 148.343 43.0524 148.344 43.0544 147.837L43.1248 130.57C43.1269 130.064 42.3928 130.063 42.3907 130.57Z" fill="white"/>
<path d="M142.607 0H49.3072C45.8846 0 43.1016 2.98182 43.1016 6.6488V75.1505C43.1016 78.8175 45.8846 81.7993 49.3072 81.7993H142.607C146.029 81.7993 148.812 78.8175 148.812 75.1505V6.6488C148.812 2.98182 146.029 0 142.607 0Z" fill="white"/>
<path d="M95.5285 40.7309C101.295 40.7309 105.969 35.7226 105.969 29.5446C105.969 23.3666 101.295 18.3584 95.5285 18.3584C89.7623 18.3584 85.0879 23.3666 85.0879 29.5446C85.0879 35.7226 89.7623 40.7309 95.5285 40.7309Z" fill="#6C63FF"/>
<path d="M97.5093 24.552C96.217 24.6091 94.7621 24.6969 93.7844 25.7273C92.9746 26.5809 92.6915 27.9097 93.4356 28.9147C94.2191 29.9729 95.522 30.1737 96.5448 30.8499C97.1804 31.2701 97.6017 31.9068 97.6153 32.7251C97.6281 33.4911 97.2982 34.2068 96.7465 34.6869C95.3932 35.8649 93.5475 35.3773 92.2672 34.3471C92.0152 34.1444 91.771 34.5994 92.0201 34.7998C93.0806 35.653 94.4459 36.1486 95.7653 35.7815C96.9799 35.4436 97.9583 34.4199 98.0899 33.052C98.2285 31.6103 97.345 30.6286 96.1994 30.0654C95.1522 29.5507 93.3154 29.0022 93.4886 27.4029C93.7087 25.3696 96.032 25.1416 97.5093 25.0764C97.8231 25.0625 97.8248 24.5381 97.5093 24.552V24.552Z" fill="white"/>
<path d="M95.2638 23.6019L95.2051 37.9895C95.2037 38.327 95.6931 38.3274 95.6945 37.9895L95.7532 23.6019C95.7545 23.2644 95.2651 23.264 95.2638 23.6019Z" fill="white"/>
<path d="M142.607 0H49.3072C45.8846 0 43.1016 2.98182 43.1016 6.6488V75.1505C43.1016 78.8175 45.8846 81.7993 49.3072 81.7993H142.607C146.029 81.7993 148.812 78.8175 148.812 75.1505V6.6488C148.812 2.98182 146.029 0 142.607 0ZM148.16 75.1505C148.16 78.433 145.671 81.1002 142.607 81.1002H49.3072C46.2435 81.1002 43.7541 78.433 43.7541 75.1505V6.6488C43.7541 3.36636 46.2435 0.69914 49.3072 0.69914H142.607C145.671 0.69914 148.16 3.36636 148.16 6.6488V75.1505Z" fill="#3F3D56"/>
<path d="M85.1993 6.76465H76.0442C75.5842 6.76465 75.209 7.16666 75.209 7.65955C75.209 8.15593 75.5842 8.55795 76.0442 8.55795H85.1993C85.6594 8.55795 86.0346 8.15593 86.0346 7.65955C86.0346 7.16666 85.6594 6.76465 85.1993 6.76465Z" fill="#E6E6E6"/>
<path d="M100.533 6.76465H91.3782C90.9182 6.76465 90.543 7.16666 90.543 7.65955C90.543 8.15593 90.9182 8.55795 91.3782 8.55795H100.533C100.993 8.55795 101.369 8.15593 101.369 7.65955C101.369 7.16666 100.993 6.76465 100.533 6.76465Z" fill="#E6E6E6"/>
<path d="M115.869 6.76465H106.714C106.254 6.76465 105.879 7.16666 105.879 7.65955C105.879 8.15593 106.254 8.55795 106.714 8.55795H115.869C116.329 8.55795 116.705 8.15593 116.705 7.65955C116.705 7.16666 116.329 6.76465 115.869 6.76465Z" fill="#E6E6E6"/>
<path d="M130.97 47.0225H60.9463C58.0328 47.0225 55.6641 49.5603 55.6641 52.682V57.7927C55.6641 60.9144 58.0328 63.4522 60.9463 63.4522H130.97C133.884 63.4522 136.252 60.9144 136.252 57.7927V52.682C136.252 49.5603 133.884 47.0225 130.97 47.0225Z" fill="#6C63FF"/>
<path d="M23.8766 73.9312L21.1914 72.5684C22.2927 74.2151 23.2417 76.787 23.7498 78.8335C24.61 76.9272 25.9967 74.5946 27.3693 73.2013L24.5314 73.9835C26.2801 64.801 32.8575 58.2089 40.3895 58.2089V57.5098C32.5221 57.5098 25.6621 64.378 23.8766 73.9312Z" fill="#3F3D56"/>
<path d="M36.2339 87.9225H19.268C18.5484 87.9225 17.9629 87.2953 17.9629 86.5243C17.9629 85.7533 18.5484 85.126 19.268 85.126H36.2339C36.9535 85.126 37.539 85.7533 37.539 86.5243C37.539 87.2953 36.9535 87.9225 36.2339 87.9225Z" fill="#E6E6E6"/>
<path d="M149.098 83.3688L148.927 97.6448L145.611 110.371L142.961 109.312L144.138 97.647L143.983 81.8613L149.098 83.3688Z" fill="#FFB6B6"/>
<path d="M145.599 112.423C145.91 110.593 145.34 108.949 144.326 108.751C143.312 108.553 142.237 109.876 141.926 111.706C141.615 113.536 142.185 115.18 143.199 115.378C144.214 115.576 145.288 114.252 145.599 112.423Z" fill="#FFB6B6"/>
<path d="M145.075 66.3701C145.075 66.3701 150.754 66.4539 150.75 69.6863C150.747 71.5114 150.381 88.0818 149.363 98.1482C148.578 105.911 147.079 107.936 147.079 107.936L143.49 99.1969L145.075 66.3701Z" fill="#E6E6E6"/>
<path d="M144.929 95.5371H125.748C127.356 91.6935 128.344 88.0329 126.799 85.1212L144.929 83.9951C144.023 87.9258 143.912 91.7834 144.929 95.5371Z" fill="#FFB6B6"/>
<path d="M142.562 61.4742L134.943 60.9111L131.79 65.1338L130.191 65.4452C127.795 65.912 126.089 68.2029 126.196 70.8096L126.818 85.9504L145.03 87.3733L149.394 67.6568L144.139 65.4153L142.562 61.4742V61.4742Z" fill="#E6E6E6"/>
<path d="M96.0956 66.0414C96.6362 66.5625 97.0221 67.1712 97.2259 67.7615L102.669 72.3768L100.543 75.0873L95.2509 70.1138C94.6815 69.9588 94.0758 69.6118 93.5352 69.0907C92.3002 67.9003 91.8722 66.2528 92.5792 65.4107C93.2862 64.5687 94.8605 64.8511 96.0955 66.0414L96.0956 66.0414Z" fill="#FFB6B6"/>
<path d="M134.574 69.9267V69.9267L113.72 85.0139L98.7715 73.8682L101.016 69.5126L112.781 76.8384L123.631 67.9124C127.495 64.024 132.337 64.7777 134.574 69.9267H134.574Z" fill="#E6E6E6"/>
<path d="M138.301 59.6465C141.423 59.6465 143.954 56.9348 143.954 53.5898C143.954 50.2449 141.423 47.5332 138.301 47.5332C135.179 47.5332 132.648 50.2449 132.648 53.5898C132.648 56.9348 135.179 59.6465 138.301 59.6465Z" fill="#FFB6B6"/>
<path d="M145.985 52.1021V53.2766L139.61 51.354L134.83 52.4272C134.775 51.6476 134.559 50.8821 134.2 50.2039C134.45 51.2916 134.478 52.1331 134.213 52.567L133.571 52.7103C133.466 52.4062 133.264 52.1405 133 51.9797C132.974 51.9622 132.941 51.9482 132.912 51.9587C132.866 51.9762 132.863 52.0391 132.863 52.0881C132.869 52.3468 132.876 52.6054 132.886 52.8641L131.039 53.2766V52.1021C129.267 47.8311 133.937 44.1353 138.514 44.0969C140.579 44.0796 142.445 44.9918 143.799 46.439C145.15 47.8897 145.985 49.8893 145.985 52.1021Z" fill="#2F2E41"/>
<path d="M149.572 65.8746L149.09 65.8319C149.125 65.6632 149.159 65.4967 149.19 65.328C149.457 63.9124 148.87 62.1103 148.827 60.7502C148.6 62.1872 148.988 63.9551 148.587 65.3195C148.542 65.4711 146.8 66.4494 146.752 66.5988C144.824 65.8434 142.816 63.4296 140.543 64.8394C139.198 65.6732 137.664 65.3078 136.137 64.926C135.759 64.8315 135.707 62.8321 135.333 62.7535C134.663 62.6129 133.679 64.4304 133.049 64.5014L135.659 53.6647C135.659 47.7696 135.149 41.5845 142.119 43.669C143.872 44.1933 145.607 44.6042 146.901 46.1543C148.195 47.7066 149.116 49.8759 149.442 52.3463C149.639 53.8366 150.867 58.8969 149.572 65.8746Z" fill="#2F2E41"/>
<path d="M145.072 174.848L141.961 174.926L140.227 159.949L144.818 159.833L145.072 174.848Z" fill="#FFB7B7"/>
<path d="M134.396 181.803C134.396 182.366 134.77 182.823 135.23 182.823H141.406C141.406 182.823 142.013 180.205 144.491 179.079L144.662 182.823H147.848L147.462 176.803C147.462 176.803 148.315 173.582 146.545 171.935C144.775 170.289 146.208 170.518 146.208 170.518L145.512 166.792L140.698 167.399L140.662 173.248L138.326 179.053L134.899 180.867C134.594 181.029 134.397 181.396 134.397 181.803H134.396H134.396Z" fill="#2F2E41"/>
<path d="M135.605 172.407L132.614 173.329L127.389 159.314L131.803 157.953L135.605 172.407Z" fill="#FFB7B7"/>
<path d="M126.926 182.037C127.059 182.582 127.528 182.922 127.973 182.797L133.947 181.118C133.947 181.118 133.915 178.421 136.045 176.657L137.097 180.232L140.179 179.366L138.38 173.648C138.38 173.648 138.441 170.301 136.34 169.189C134.237 168.078 135.678 167.91 135.678 167.91L134.122 164.495L129.609 166.391L130.96 172.058L130.076 178.309L127.19 180.995C126.934 181.234 126.83 181.644 126.926 182.037L126.926 182.037L126.926 182.037Z" fill="#2F2E41"/>
<path d="M143.163 94.6523L145.121 95.3515C148.182 101.408 149.479 109.451 149.307 119.15L145.83 162.71H140.141L135.978 114.182L128.637 132.396L134.008 162.71L128.637 163.297L117.818 131.775L125.353 95.1399L143.163 94.6523Z" fill="#2F2E41"/>
</g>
<defs>
<clipPath id="clip0_3007_23837">
<rect width="178" height="183" fill="white"/>
</clipPath>
</defs>
</svg>
