<svg width="28" height="28" viewBox="0 0 28 28" fill="none" xmlns="http://www.w3.org/2000/svg">
<path d="M7.0585 21.7208C6.80572 21.7208 6.59669 21.6414 6.43141 21.4826C6.26613 21.3238 6.1835 21.123 6.1835 20.8801V13.0335C6.1835 12.8093 6.271 12.6178 6.446 12.459C6.621 12.3002 6.82516 12.2208 7.0585 12.2208C7.31127 12.2208 7.5203 12.3002 7.68558 12.459C7.85086 12.6178 7.9335 12.8187 7.9335 13.0615V20.9081C7.9335 21.1323 7.846 21.3238 7.671 21.4826C7.496 21.6414 7.29183 21.7208 7.0585 21.7208ZM14.1168 21.7208C13.8641 21.7208 13.655 21.6414 13.4897 21.4826C13.3245 21.3238 13.2418 21.123 13.2418 20.8801V13.0335C13.2418 12.8093 13.3293 12.6178 13.5043 12.459C13.6793 12.3002 13.8835 12.2208 14.1168 12.2208C14.3696 12.2208 14.5786 12.3002 14.7439 12.459C14.9092 12.6178 14.9918 12.8187 14.9918 13.0615V20.9081C14.9918 21.1323 14.9043 21.3238 14.7293 21.4826C14.5543 21.6414 14.3502 21.7208 14.1168 21.7208ZM3.17933 25.0837C2.946 25.0837 2.74669 24.9996 2.58141 24.8314C2.41614 24.6633 2.3335 24.4671 2.3335 24.243C2.3335 24.0001 2.41614 23.7992 2.58141 23.6404C2.74669 23.4816 2.95572 23.4022 3.2085 23.4022H24.821C25.0543 23.4022 25.2536 23.4863 25.4189 23.6545C25.5842 23.8226 25.6668 24.0188 25.6668 24.243C25.6668 24.4858 25.5842 24.6867 25.4189 24.8455C25.2536 25.0043 25.0446 25.0837 24.7918 25.0837H3.17933ZM20.9418 21.7208C20.6891 21.7208 20.48 21.6414 20.3147 21.4826C20.1495 21.3238 20.0668 21.123 20.0668 20.8801V13.0335C20.0668 12.8093 20.1543 12.6178 20.3293 12.459C20.5043 12.3002 20.7085 12.2208 20.9418 12.2208C21.1946 12.2208 21.4036 12.3002 21.5689 12.459C21.7342 12.6178 21.8168 12.8187 21.8168 13.0615V20.9081C21.8168 21.1323 21.7293 21.3238 21.5543 21.4826C21.3793 21.6414 21.1752 21.7208 20.9418 21.7208ZM14.8752 3.14118L25.0252 8.68985C25.2196 8.78327 25.3752 8.91871 25.4918 9.0962C25.6085 9.27368 25.6668 9.46517 25.6668 9.67068C25.6668 9.93223 25.5599 10.1424 25.346 10.3012C25.1321 10.46 24.8891 10.5394 24.6168 10.5394H3.3835C3.11127 10.5394 2.86822 10.46 2.65433 10.3012C2.44044 10.1424 2.3335 9.93223 2.3335 9.67068C2.3335 9.46517 2.39669 9.27835 2.52308 9.11021C2.64947 8.94207 2.80989 8.80195 3.00433 8.68985L13.1252 3.14118C13.3974 2.99172 13.6891 2.91699 14.0002 2.91699C14.3113 2.91699 14.6029 2.99172 14.8752 3.14118ZM6.24183 8.858H21.7585H6.24183ZM6.24183 8.858H21.7585L14.0002 4.59841L6.24183 8.858Z" fill="#141414"/>
</svg>
