<svg width="24" height="24" viewBox="0 0 24 24" fill="none" xmlns="http://www.w3.org/2000/svg">
<path d="M1.75 19.525C1.53333 19.525 1.35417 19.4542 1.2125 19.3125C1.07083 19.1708 1 18.9917 1 18.775V17.175C1 16.5917 1.15 16.0625 1.45 15.5875C1.75 15.1125 2.16667 14.7583 2.7 14.525C3.91667 13.9917 5.0125 13.6083 5.9875 13.375C6.9625 13.1417 7.96667 13.025 9 13.025C10.0333 13.025 11.0333 13.1417 12 13.375C12.9667 13.6083 14.0583 13.9917 15.275 14.525C15.8083 14.7583 16.2292 15.1125 16.5375 15.5875C16.8458 16.0625 17 16.5917 17 17.175V18.775C17 18.9917 16.9292 19.1708 16.7875 19.3125C16.6458 19.4542 16.4667 19.525 16.25 19.525H1.75ZM17.95 19.525C18.1167 19.4917 18.25 19.4042 18.35 19.2625C18.45 19.1208 18.5 18.9417 18.5 18.725V17.175C18.5 16.125 18.2333 15.2625 17.7 14.5875C17.1667 13.9125 16.4667 13.3667 15.6 12.95C16.75 13.0833 17.8333 13.2792 18.85 13.5375C19.8667 13.7958 20.6917 14.0917 21.325 14.425C21.875 14.7417 22.3083 15.1333 22.625 15.6C22.9417 16.0667 23.1 16.5917 23.1 17.175V18.775C23.1 18.9917 23.0292 19.1708 22.8875 19.3125C22.7458 19.4542 22.5667 19.525 22.35 19.525H17.95ZM9 11.5C7.9 11.5 7 11.15 6.3 10.45C5.6 9.75 5.25 8.85 5.25 7.75C5.25 6.65 5.6 5.75 6.3 5.05C7 4.35 7.9 4 9 4C10.1 4 11 4.35 11.7 5.05C12.4 5.75 12.75 6.65 12.75 7.75C12.75 8.85 12.4 9.75 11.7 10.45C11 11.15 10.1 11.5 9 11.5ZM18 7.75C18 8.85 17.65 9.75 16.95 10.45C16.25 11.15 15.35 11.5 14.25 11.5C14.0667 11.5 13.8625 11.4875 13.6375 11.4625C13.4125 11.4375 13.2083 11.3917 13.025 11.325C13.425 10.9083 13.7292 10.3958 13.9375 9.7875C14.1458 9.17917 14.25 8.5 14.25 7.75C14.25 7 14.1458 6.3375 13.9375 5.7625C13.7292 5.1875 13.425 4.65833 13.025 4.175C13.2083 4.125 13.4125 4.08333 13.6375 4.05C13.8625 4.01667 14.0667 4 14.25 4C15.35 4 16.25 4.35 16.95 5.05C17.65 5.75 18 6.65 18 7.75ZM2.5 18.025H15.5V17.175C15.5 16.9083 15.4208 16.65 15.2625 16.4C15.1042 16.15 14.9083 15.975 14.675 15.875C13.475 15.3417 12.4667 14.9833 11.65 14.8C10.8333 14.6167 9.95 14.525 9 14.525C8.05 14.525 7.1625 14.6167 6.3375 14.8C5.5125 14.9833 4.5 15.3417 3.3 15.875C3.06667 15.975 2.875 16.15 2.725 16.4C2.575 16.65 2.5 16.9083 2.5 17.175V18.025ZM9 10C9.65 10 10.1875 9.7875 10.6125 9.3625C11.0375 8.9375 11.25 8.4 11.25 7.75C11.25 7.1 11.0375 6.5625 10.6125 6.1375C10.1875 5.7125 9.65 5.5 9 5.5C8.35 5.5 7.8125 5.7125 7.3875 6.1375C6.9625 6.5625 6.75 7.1 6.75 7.75C6.75 8.4 6.9625 8.9375 7.3875 9.3625C7.8125 9.7875 8.35 10 9 10Z" fill="#A5A8AC"/>
</svg>
