<svg width="34" height="34" viewBox="0 0 34 34" fill="none" xmlns="http://www.w3.org/2000/svg">
<path d="M16.9993 16.292C15.441 16.292 14.166 15.7962 13.1743 14.8045C12.1827 13.8128 11.6868 12.5378 11.6868 10.9795C11.6868 9.42116 12.1827 8.14616 13.1743 7.15449C14.166 6.16283 15.441 5.66699 16.9993 5.66699C18.5577 5.66699 19.8327 6.16283 20.8243 7.15449C21.816 8.14616 22.3118 9.42116 22.3118 10.9795C22.3118 12.5378 21.816 13.8128 20.8243 14.8045C19.8327 15.7962 18.5577 16.292 16.9993 16.292ZM26.2077 27.6607H7.79102C7.20074 27.6607 6.699 27.4541 6.28581 27.0409C5.87261 26.6278 5.66602 26.126 5.66602 25.5357V24.3316C5.66602 23.4344 5.89032 22.667 6.33893 22.0295C6.78754 21.392 7.36602 20.908 8.07435 20.5774C9.65629 19.8691 11.1733 19.3378 12.6254 18.9837C14.0775 18.6295 15.5355 18.4524 16.9993 18.4524C18.4632 18.4524 19.9153 18.6354 21.3556 19.0014C22.7959 19.3673 24.307 19.8927 25.8889 20.5774C26.6209 20.908 27.2112 21.392 27.6598 22.0295C28.1084 22.667 28.3327 23.4344 28.3327 24.3316V25.5357C28.3327 26.126 28.1261 26.6278 27.7129 27.0409C27.2997 27.4541 26.798 27.6607 26.2077 27.6607ZM7.79102 25.5357H26.2077V24.3316C26.2077 23.9538 26.0955 23.5937 25.8712 23.2514C25.6469 22.909 25.3695 22.6552 25.0389 22.4899C23.5278 21.758 22.1466 21.2562 20.8952 20.9847C19.6438 20.7132 18.3452 20.5774 16.9993 20.5774C15.6535 20.5774 14.3431 20.7132 13.0681 20.9847C11.7931 21.2562 10.4118 21.758 8.92435 22.4899C8.59379 22.6552 8.32227 22.909 8.10977 23.2514C7.89727 23.5937 7.79102 23.9538 7.79102 24.3316V25.5357ZM16.9993 14.167C17.9202 14.167 18.6816 13.8659 19.2837 13.2639C19.8858 12.6618 20.1868 11.9003 20.1868 10.9795C20.1868 10.0587 19.8858 9.2972 19.2837 8.69512C18.6816 8.09303 17.9202 7.79199 16.9993 7.79199C16.0785 7.79199 15.3171 8.09303 14.715 8.69512C14.1129 9.2972 13.8118 10.0587 13.8118 10.9795C13.8118 11.9003 14.1129 12.6618 14.715 13.2639C15.3171 13.8659 16.0785 14.167 16.9993 14.167Z" fill="#7633FF"/>
</svg>
