<svg width="24" height="24" viewBox="0 0 24 24" fill="none" xmlns="http://www.w3.org/2000/svg">
<path d="M12 11.5C10.9 11.5 10 11.15 9.3 10.45C8.6 9.75 8.25 8.85 8.25 7.75C8.25 6.65 8.6 5.75 9.3 5.05C10 4.35 10.9 4 12 4C13.1 4 14 4.35 14.7 5.05C15.4 5.75 15.75 6.65 15.75 7.75C15.75 8.85 15.4 9.75 14.7 10.45C14 11.15 13.1 11.5 12 11.5ZM18.5 19.525H5.5C5.08333 19.525 4.72917 19.3792 4.4375 19.0875C4.14583 18.7958 4 18.4417 4 18.025V17.175C4 16.5417 4.15833 16 4.475 15.55C4.79167 15.1 5.2 14.7583 5.7 14.525C6.81667 14.025 7.8875 13.65 8.9125 13.4C9.9375 13.15 10.9667 13.025 12 13.025C13.0333 13.025 14.0583 13.1542 15.075 13.4125C16.0917 13.6708 17.1583 14.0417 18.275 14.525C18.7917 14.7583 19.2083 15.1 19.525 15.55C19.8417 16 20 16.5417 20 17.175V18.025C20 18.4417 19.8542 18.7958 19.5625 19.0875C19.2708 19.3792 18.9167 19.525 18.5 19.525ZM5.5 18.025H18.5V17.175C18.5 16.9083 18.4208 16.6542 18.2625 16.4125C18.1042 16.1708 17.9083 15.9917 17.675 15.875C16.6083 15.3583 15.6333 15.0042 14.75 14.8125C13.8667 14.6208 12.95 14.525 12 14.525C11.05 14.525 10.125 14.6208 9.225 14.8125C8.325 15.0042 7.35 15.3583 6.3 15.875C6.06667 15.9917 5.875 16.1708 5.725 16.4125C5.575 16.6542 5.5 16.9083 5.5 17.175V18.025ZM12 10C12.65 10 13.1875 9.7875 13.6125 9.3625C14.0375 8.9375 14.25 8.4 14.25 7.75C14.25 7.1 14.0375 6.5625 13.6125 6.1375C13.1875 5.7125 12.65 5.5 12 5.5C11.35 5.5 10.8125 5.7125 10.3875 6.1375C9.9625 6.5625 9.75 7.1 9.75 7.75C9.75 8.4 9.9625 8.9375 10.3875 9.3625C10.8125 9.7875 11.35 10 12 10Z" fill="#141414"/>
</svg>
