<svg width="103" height="22" viewBox="0 0 103 22" fill="none" xmlns="http://www.w3.org/2000/svg">
<g clip-path="url(#clip0_3007_24262)">
<path d="M2.87025 17.0016H0L2.91673 0H8.59914C9.65273 0 10.4623 0.150764 11.0278 0.452293C11.5933 0.753822 12.0465 1.22931 12.3874 1.87876C12.736 2.52047 12.9103 3.30908 12.9103 4.2446C12.9103 5.3734 12.7012 6.41328 12.2828 7.36426C11.8722 8.3075 11.3571 9.0072 10.7373 9.46336C10.1253 9.91952 9.39708 10.2288 8.55266 10.3911C8.09558 10.4762 7.18919 10.5187 5.83347 10.5187H3.98582L2.87025 17.0016ZM4.47388 7.70058H5.35703C6.77473 7.70058 7.73922 7.60394 8.25052 7.41065C8.76957 7.21736 9.19565 6.86558 9.52877 6.3553C9.86189 5.83729 10.0285 5.2381 10.0285 4.55772C10.0285 3.82323 9.7883 3.31682 9.30799 3.03848C9.02909 2.87612 8.3861 2.79494 7.37899 2.79494H5.31055L4.47388 7.70058Z" fill="#7633FF"/>
<path d="M13.8744 11.8872C13.8744 9.86927 14.3314 8.15287 15.2456 6.73801C16.2604 5.18397 17.7285 4.40696 19.6497 4.40696C21.0907 4.40696 22.2372 4.89404 23.0894 5.86821C23.9493 6.84238 24.3793 8.19926 24.3793 9.93885C24.3793 11.98 23.8447 13.7157 22.7756 15.146C21.7143 16.5686 20.3237 17.2799 18.6039 17.2799C17.2017 17.2799 16.0629 16.7967 15.1875 15.8303C14.3121 14.8638 13.8744 13.5495 13.8744 11.8872ZM21.6717 9.50975C21.6717 8.69794 21.478 8.06009 21.0907 7.5962C20.7111 7.13231 20.2269 6.90037 19.6381 6.90037C19.1423 6.90037 18.6775 7.07046 18.2437 7.41065C17.8098 7.75083 17.4302 8.34229 17.1048 9.18503C16.7795 10.0278 16.6168 10.9014 16.6168 11.806C16.6168 12.7261 16.8143 13.4412 17.2094 13.9515C17.6123 14.4618 18.1081 14.7169 18.6968 14.7169C19.4406 14.7169 20.0719 14.3226 20.591 13.534C21.3115 12.4516 21.6717 11.1102 21.6717 9.50975Z" fill="#7633FF"/>
<path d="M32.7339 12.3627L35.3834 12.8846C34.9418 14.3535 34.2872 15.4553 33.4195 16.1898C32.5596 16.9165 31.5757 17.2799 30.4679 17.2799C29.2129 17.2799 28.198 16.8238 27.4233 15.9114C26.6486 14.9991 26.2613 13.7041 26.2613 12.0264C26.2613 10.5187 26.5208 9.1773 27.0399 8.00211C27.5667 6.81919 28.2755 5.9262 29.1664 5.32314C30.0651 4.71235 31.0218 4.40696 32.0367 4.40696C33.1832 4.40696 34.1245 4.77034 34.8604 5.4971C35.5964 6.22386 36.0109 7.23282 36.1038 8.52398L33.5008 8.86031C33.3769 7.52276 32.8346 6.85398 31.874 6.85398C31.4324 6.85398 30.9986 7.03567 30.5725 7.39905C30.1464 7.76243 29.7707 8.41188 29.4453 9.34739C29.1277 10.2829 28.9689 11.3035 28.9689 12.4091C28.9689 13.1436 29.1161 13.708 29.4104 14.1023C29.7126 14.4888 30.0728 14.6821 30.4911 14.6821C30.9327 14.6821 31.3549 14.4966 31.7578 14.1255C32.1684 13.7466 32.4937 13.159 32.7339 12.3627Z" fill="#7633FF"/>
<path d="M37.1608 17.0016L40.0776 0H42.82L41.2977 8.84871L44.8536 4.68529H48.4094L44.3423 9.16183L46.5153 17.0016H43.7729L42.3784 11.3073L40.5308 13.3021L39.8916 17.0016H37.1608Z" fill="#7633FF"/>
<path d="M58.3793 11.8756H51.5116V12.1887C51.5116 13.016 51.7053 13.677 52.0926 14.1719C52.48 14.6667 52.9448 14.9141 53.4871 14.9141C54.3857 14.9141 55.0946 14.3419 55.6136 13.1977L58.0656 13.6964C57.5852 14.8947 56.9461 15.7916 56.1482 16.3869C55.3502 16.9823 54.4555 17.2799 53.4639 17.2799C52.1469 17.2799 51.0507 16.7696 50.1753 15.7491C49.3076 14.7208 48.8738 13.3291 48.8738 11.5741C48.8738 9.67984 49.3696 8.01371 50.3612 6.57565C51.3528 5.12985 52.7395 4.40696 54.5213 4.40696C55.7221 4.40696 56.6943 4.86312 57.4381 5.77543C58.1895 6.68002 58.5652 7.99051 58.5652 9.70691C58.5652 10.5187 58.5033 11.2416 58.3793 11.8756ZM56.0668 9.84607L56.0785 9.52135C56.0785 8.58584 55.9042 7.89387 55.5555 7.44544C55.2147 6.99701 54.7692 6.7728 54.2192 6.7728C53.6614 6.7728 53.154 7.0318 52.6969 7.54982C52.2476 8.06783 51.9454 8.83325 51.7905 9.84607H56.0668Z" fill="#7633FF"/>
<path d="M60.5403 7.15551L60.9586 4.68529H62.2949L62.6319 2.71376L65.7578 0.417501L65.0257 4.68529H66.6991L66.2808 7.15551H64.6074L63.7126 12.3163C63.5577 13.2441 63.4802 13.7814 63.4802 13.9283C63.4802 14.1989 63.55 14.3999 63.6894 14.5314C63.8288 14.6628 64.069 14.7285 64.4099 14.7285C64.5183 14.7285 64.8166 14.7015 65.3046 14.6473L64.8747 17.1176C64.4021 17.2258 63.9257 17.2799 63.4454 17.2799C62.5157 17.2799 61.8185 17.0634 61.3537 16.6305C60.8966 16.1975 60.6681 15.5635 60.6681 14.7285C60.6681 14.3419 60.7843 13.4683 61.0167 12.1075L61.865 7.15551H60.5403Z" fill="#7633FF"/>
<path d="M69.7316 17.0016H66.8613L69.778 0H75.4604C76.514 0 77.3236 0.150764 77.8891 0.452293C78.4547 0.753822 78.9079 1.22931 79.2487 1.87876C79.5973 2.52047 79.7716 3.30908 79.7716 4.2446C79.7716 5.3734 79.5625 6.41328 79.1441 7.36426C78.7335 8.3075 78.2184 9.0072 77.5986 9.46336C76.9866 9.91952 76.2584 10.2288 75.414 10.3911C74.9569 10.4762 74.0505 10.5187 72.6948 10.5187H70.8471L69.7316 17.0016ZM71.3352 7.70058H72.2183C73.636 7.70058 74.6005 7.60394 75.1118 7.41065C75.6309 7.21736 76.057 6.86558 76.3901 6.3553C76.7232 5.83729 76.8898 5.2381 76.8898 4.55772C76.8898 3.82323 76.6496 3.31682 76.1693 3.03848C75.8904 2.87612 75.2474 2.79494 74.2403 2.79494H72.1719L71.3352 7.70058Z" fill="#7633FF"/>
<path d="M84.1986 8.17607L81.5259 7.89773C81.8435 6.7612 82.3935 5.89527 83.176 5.29995C83.9584 4.70462 84.95 4.40696 86.1508 4.40696C87.3748 4.40696 88.3161 4.71235 88.9746 5.32314C89.6331 5.9262 89.9623 6.73028 89.9623 7.73537C89.9623 8.09102 89.9352 8.46986 89.881 8.8719C89.8345 9.27394 89.6486 10.3718 89.3232 12.1655C89.052 13.6422 88.9165 14.6744 88.9165 15.262C88.9165 15.7955 88.9901 16.3753 89.1373 17.0016H86.4878C86.3793 16.5532 86.3135 16.0893 86.2903 15.6099C85.8874 16.1511 85.4226 16.5648 84.8958 16.8508C84.3768 17.1369 83.8577 17.2799 83.3387 17.2799C82.5175 17.2799 81.828 16.9552 81.2702 16.3057C80.7124 15.6563 80.4335 14.7904 80.4335 13.708C80.4335 12.4632 80.7512 11.5045 81.3864 10.8318C82.0139 10.1592 83.0675 9.75329 84.5472 9.61413C85.8487 9.48269 86.7202 9.3242 87.1618 9.13864C87.278 8.66702 87.3361 8.29204 87.3361 8.01371C87.3361 7.64259 87.2083 7.34493 86.9526 7.12072C86.7047 6.88877 86.3639 6.7728 85.93 6.7728C84.9849 6.7728 84.4077 7.24056 84.1986 8.17607ZM86.8016 11.2609C86.6311 11.3151 86.4103 11.3653 86.1392 11.4117C84.8609 11.5973 84.0165 11.8485 83.6059 12.1655C83.2031 12.4748 83.0017 12.8923 83.0017 13.418C83.0017 13.8278 83.1179 14.1603 83.3503 14.4154C83.5904 14.6705 83.8926 14.7981 84.2567 14.7981C84.6363 14.7981 85.0004 14.6937 85.349 14.485C85.6976 14.2685 85.9765 13.9708 86.1857 13.592C86.3948 13.2054 86.573 12.5753 86.7202 11.7016L86.8016 11.2609Z" fill="#7633FF"/>
<path d="M92.5183 4.68529H95.2375L95.9231 10.8202C96.0936 12.3897 96.1904 13.4953 96.2137 14.1371C96.57 12.8691 97.0581 11.5393 97.6778 10.1476L100.107 4.68529H103L96.7482 18.2077C96.1594 19.4757 95.7062 20.3223 95.3886 20.7475C95.071 21.1805 94.7107 21.4975 94.3079 21.6985C93.9128 21.8995 93.4635 22 92.9599 22C92.3867 22 91.7359 21.8763 91.0077 21.6289L91.2517 19.1471C91.5771 19.263 91.8947 19.321 92.2046 19.321C93.0413 19.321 93.7346 18.5479 94.2847 17.0016L92.5183 4.68529Z" fill="#7633FF"/>
</g>
<defs>
<clipPath id="clip0_3007_24262">
<rect width="103" height="22" fill="white"/>
</clipPath>
</defs>
</svg>
