<svg width="34" height="34" viewBox="0 0 34 34" fill="none" xmlns="http://www.w3.org/2000/svg">
<path fill-rule="evenodd" clip-rule="evenodd" d="M17 5.75C10.7868 5.75 5.75 10.7868 5.75 17C5.75 23.2132 10.7868 28.25 17 28.25C23.2132 28.25 28.25 23.2132 28.25 17C28.25 10.7868 23.2132 5.75 17 5.75ZM4.25 17C4.25 9.95837 9.95837 4.25 17 4.25C24.0416 4.25 29.75 9.95837 29.75 17C29.75 24.0416 24.0416 29.75 17 29.75C9.95837 29.75 4.25 24.0416 4.25 17ZM17.5303 11.6697L22.3278 16.4672C22.3365 16.4758 22.345 16.4846 22.3533 16.4936C22.4101 16.5556 22.4546 16.6249 22.4868 16.6982C22.5275 16.7905 22.55 16.8926 22.55 17C22.55 17.1074 22.5275 17.2095 22.4868 17.3018C22.4546 17.3751 22.4101 17.4444 22.3533 17.5064C22.345 17.5154 22.3365 17.5242 22.3278 17.5328L17.5303 22.3303C17.2374 22.6232 16.7626 22.6232 16.4697 22.3303C16.1768 22.0374 16.1768 21.5626 16.4697 21.2697L19.9893 17.75H12.2C11.7858 17.75 11.45 17.4142 11.45 17C11.45 16.5858 11.7858 16.25 12.2 16.25H19.9893L16.4697 12.7303C16.1768 12.4374 16.1768 11.9626 16.4697 11.6697C16.7626 11.3768 17.2374 11.3768 17.5303 11.6697Z" fill="#7633FF"/>
</svg>
