<svg width="24" height="24" viewBox="0 0 24 24" fill="none" xmlns="http://www.w3.org/2000/svg">
<path d="M13.4799 22H10.4955C10.2817 22 10.0926 21.925 9.9282 21.775C9.76377 21.625 9.66511 21.4333 9.63223 21.2L9.33626 18.95C9.07317 18.8667 8.80614 18.7417 8.53516 18.575C8.26352 18.4083 8.01261 18.2333 7.78241 18.05L5.73527 18.95C5.52151 19.0333 5.31203 19.0417 5.10682 18.975C4.90096 18.9083 4.73226 18.775 4.60071 18.575L3.12085 15.95C3.00575 15.75 2.97287 15.5373 3.0222 15.312C3.07153 15.0873 3.1784 14.9083 3.34283 14.775L5.14333 13.4C5.11044 13.25 5.09005 13.1 5.08216 12.95C5.07361 12.8 5.06933 12.65 5.06933 12.5C5.06933 12.3667 5.07361 12.225 5.08216 12.075C5.09005 11.925 5.11044 11.7667 5.14333 11.6L3.34283 10.225C3.1784 10.0917 3.07153 9.91267 3.0222 9.688C2.97287 9.46267 3.00575 9.25 3.12085 9.05L4.60071 6.45C4.71581 6.25 4.88024 6.11667 5.094 6.05C5.30776 5.98333 5.51329 5.99167 5.71061 6.075L7.78241 6.95C8.01261 6.76667 8.26352 6.596 8.53516 6.438C8.80614 6.27933 9.07317 6.15 9.33626 6.05L9.63223 3.8C9.66511 3.56667 9.76377 3.375 9.9282 3.225C10.0926 3.075 10.2817 3 10.4955 3H13.4799C13.7101 3 13.9074 3.075 14.0718 3.225C14.2362 3.375 14.3349 3.56667 14.3678 3.8L14.6637 6.05C14.9597 6.16667 15.2267 6.29567 15.4648 6.437C15.7036 6.579 15.9463 6.75 16.1929 6.95L18.2894 6.075C18.4867 5.99167 18.6883 5.98333 18.8942 6.05C19.0994 6.11667 19.2677 6.25 19.3993 6.45L20.8791 9.05C20.9942 9.25 21.0271 9.46267 20.9778 9.688C20.9285 9.91267 20.8216 10.0917 20.6572 10.225L18.832 11.625C18.8649 11.7917 18.8813 11.9417 18.8813 12.075V12.5C18.8813 12.6333 18.8771 12.7707 18.8685 12.912C18.8606 13.054 18.8402 13.2167 18.8073 13.4L20.6078 14.775C20.7887 14.9083 20.9038 15.0873 20.9531 15.312C21.0025 15.5373 20.9614 15.75 20.8298 15.95L19.35 18.55C19.2349 18.75 19.0704 18.8833 18.8567 18.95C18.6429 19.0167 18.4292 19.0083 18.2154 18.925L16.1929 18.05C15.9463 18.25 15.6957 18.425 15.4412 18.575C15.186 18.725 14.9268 18.85 14.6637 18.95L14.3678 21.2C14.3349 21.4333 14.2362 21.625 14.0718 21.775C13.9074 21.925 13.7101 22 13.4799 22ZM12 15.5C12.8221 15.5 13.521 15.2083 14.0965 14.625C14.672 14.0417 14.9597 13.3333 14.9597 12.5C14.9597 11.6667 14.672 10.9583 14.0965 10.375C13.521 9.79167 12.8221 9.5 12 9.5C11.1779 9.5 10.479 9.79167 9.90353 10.375C9.32803 10.9583 9.04028 11.6667 9.04028 12.5C9.04028 13.3333 9.32803 14.0417 9.90353 14.625C10.479 15.2083 11.1779 15.5 12 15.5ZM12 14C11.5889 14 11.2397 13.854 10.9523 13.562C10.6642 13.2707 10.5201 12.9167 10.5201 12.5C10.5201 12.0833 10.6642 11.7293 10.9523 11.438C11.2397 11.146 11.5889 11 12 11C12.4111 11 12.7603 11.146 13.0477 11.438C13.3358 11.7293 13.4799 12.0833 13.4799 12.5C13.4799 12.9167 13.3358 13.2707 13.0477 13.562C12.7603 13.854 12.4111 14 12 14ZM11.0134 20.5H12.9619L13.3072 17.825C13.8169 17.6917 14.2773 17.5 14.6884 17.25C15.0995 17 15.5023 16.6833 15.897 16.3L18.3387 17.35L19.3253 15.65L17.1795 14.025C17.2617 13.7583 17.3153 13.5 17.3403 13.25C17.3646 13 17.3768 12.75 17.3768 12.5C17.3768 12.2333 17.3646 11.9793 17.3403 11.738C17.3153 11.496 17.2617 11.25 17.1795 11L19.3253 9.35L18.3634 7.65L15.8723 8.7C15.5434 8.35 15.1488 8.03733 14.6884 7.762C14.228 7.48733 13.7676 7.29167 13.3072 7.175L12.9866 4.5H11.0381L10.6928 7.175C10.1995 7.29167 9.73911 7.475 9.31159 7.725C8.88408 7.975 8.47301 8.29167 8.07838 8.675L5.63661 7.65L4.67471 9.35L6.79583 10.95C6.71362 11.2 6.65607 11.45 6.62318 11.7C6.5903 11.95 6.57386 12.2167 6.57386 12.5C6.57386 12.7667 6.5903 13.025 6.62318 13.275C6.65607 13.525 6.71362 13.775 6.79583 14.025L4.67471 15.65L5.63661 17.35L8.07838 16.3C8.45656 16.6833 8.85941 17 9.28693 17.25C9.71444 17.5 10.1831 17.6917 10.6928 17.825L11.0134 20.5Z" fill="#141414"/>
</svg>
