<svg width="34" height="34" viewBox="0 0 34 34" fill="none" xmlns="http://www.w3.org/2000/svg">
<path fill-rule="evenodd" clip-rule="evenodd" d="M16.6648 4.32918C16.8759 4.22361 17.1244 4.22361 17.3356 4.32918L29.3356 10.3292C29.5897 10.4562 29.7502 10.7159 29.7502 11C29.7502 11.2841 29.5897 11.5438 29.3356 11.6708L17.3356 17.6708C17.1244 17.7764 16.8759 17.7764 16.6648 17.6708L4.66475 11.6708C4.41067 11.5438 4.25016 11.2841 4.25016 11C4.25016 10.7159 4.41067 10.4562 4.66475 10.3292L16.6648 4.32918ZM6.67722 11L17.0002 16.1615L27.3231 11L17.0002 5.83853L6.67722 11ZM4.32934 22.6646C4.51459 22.2941 4.96509 22.1439 5.33557 22.3292L17.0002 28.1615L28.6648 22.3292C29.0352 22.1439 29.4857 22.2941 29.671 22.6646C29.8562 23.0351 29.7061 23.4856 29.3356 23.6708L17.3356 29.6708C17.1244 29.7764 16.8759 29.7764 16.6648 29.6708L4.66475 23.6708C4.29427 23.4856 4.1441 23.0351 4.32934 22.6646ZM5.33557 16.3292C4.96509 16.1439 4.51459 16.2941 4.32934 16.6646C4.1441 17.0351 4.29427 17.4856 4.66475 17.6708L16.6648 23.6708C16.8759 23.7764 17.1244 23.7764 17.3356 23.6708L29.3356 17.6708C29.7061 17.4856 29.8562 17.0351 29.671 16.6646C29.4857 16.2941 29.0352 16.1439 28.6648 16.3292L17.0002 22.1615L5.33557 16.3292Z" fill="#7633FF"/>
</svg>
