<svg width="24" height="24" viewBox="0 0 24 24" fill="none" xmlns="http://www.w3.org/2000/svg">
<path d="M18.154 22C17.3717 22 16.7018 21.7208 16.1442 21.1625C15.5867 20.6042 15.3079 19.9333 15.3079 19.15C15.3079 19.0333 15.3204 18.8958 15.3454 18.7375C15.3703 18.5792 15.4078 18.4333 15.4577 18.3L7.8932 13.9C7.64355 14.1833 7.33564 14.4125 6.96949 14.5875C6.60333 14.7625 6.22885 14.85 5.84605 14.85C5.0638 14.85 4.3939 14.5708 3.83634 14.0125C3.27878 13.4542 3 12.7833 3 12C3 11.2 3.27878 10.525 3.83634 9.975C4.3939 9.425 5.0638 9.15 5.84605 9.15C6.22885 9.15 6.59501 9.225 6.94452 9.375C7.29404 9.525 7.61026 9.74167 7.8932 10.025L15.4577 5.675C15.4078 5.55833 15.3703 5.425 15.3454 5.275C15.3204 5.125 15.3079 4.98333 15.3079 4.85C15.3079 4.05 15.5867 3.375 16.1442 2.825C16.7018 2.275 17.3717 2 18.154 2C18.9528 2 19.6269 2.275 20.1761 2.825C20.7254 3.375 21 4.05 21 4.85C21 5.63333 20.7254 6.30417 20.1761 6.8625C19.6269 7.42083 18.9528 7.7 18.154 7.7C17.7712 7.7 17.4008 7.6375 17.043 7.5125C16.6852 7.3875 16.3814 7.18333 16.1318 6.9L8.56727 11.1C8.60055 11.2333 8.62968 11.3875 8.65465 11.5625C8.67961 11.7375 8.69209 11.8833 8.69209 12C8.69209 12.1167 8.67961 12.2417 8.65465 12.375C8.62968 12.5083 8.60055 12.6417 8.56727 12.775L16.1318 17.075C16.3814 16.8417 16.6727 16.6542 17.0055 16.5125C17.3384 16.3708 17.7212 16.3 18.154 16.3C18.9528 16.3 19.6269 16.575 20.1761 17.125C20.7254 17.675 21 18.35 21 19.15C21 19.9333 20.7254 20.6042 20.1761 21.1625C19.6269 21.7208 18.9528 22 18.154 22ZM18.154 6.2C18.5368 6.2 18.8571 6.07083 19.1151 5.8125C19.3731 5.55417 19.5021 5.23333 19.5021 4.85C19.5021 4.46667 19.3731 4.14583 19.1151 3.8875C18.8571 3.62917 18.5368 3.5 18.154 3.5C17.7712 3.5 17.4508 3.62917 17.1928 3.8875C16.9348 4.14583 16.8058 4.46667 16.8058 4.85C16.8058 5.23333 16.9348 5.55417 17.1928 5.8125C17.4508 6.07083 17.7712 6.2 18.154 6.2ZM5.84605 13.35C6.22885 13.35 6.54924 13.2208 6.80721 12.9625C7.06519 12.7042 7.19417 12.3833 7.19417 12C7.19417 11.6167 7.06519 11.2958 6.80721 11.0375C6.54924 10.7792 6.22885 10.65 5.84605 10.65C5.46325 10.65 5.14286 10.7792 4.88488 11.0375C4.62691 11.2958 4.49792 11.6167 4.49792 12C4.49792 12.3833 4.62691 12.7042 4.88488 12.9625C5.14286 13.2208 5.46325 13.35 5.84605 13.35ZM18.154 20.5C18.5368 20.5 18.8571 20.3708 19.1151 20.1125C19.3731 19.8542 19.5021 19.5333 19.5021 19.15C19.5021 18.7667 19.3731 18.4458 19.1151 18.1875C18.8571 17.9292 18.5368 17.8 18.154 17.8C17.7712 17.8 17.4508 17.9292 17.1928 18.1875C16.9348 18.4458 16.8058 18.7667 16.8058 19.15C16.8058 19.5333 16.9348 19.8542 17.1928 20.1125C17.4508 20.3708 17.7712 20.5 18.154 20.5Z" fill="#141414"/>
</svg>
