<svg width="175" height="126" viewBox="0 0 175 126" fill="none" xmlns="http://www.w3.org/2000/svg">
<g clip-path="url(#clip0_18290_4793)">
<path d="M13.6617 17.4254C17.7185 17.4254 21.0071 14.1074 21.0071 10.0145C21.0071 5.92151 17.7185 2.60352 13.6617 2.60352C9.60503 2.60352 6.31641 5.92151 6.31641 10.0145C6.31641 14.1074 9.60503 17.4254 13.6617 17.4254Z" fill="#FF6584"/>
<path d="M59.0748 120.965C64.9178 123.407 71.1216 124.856 77.4341 125.252C80.3916 125.438 83.4048 125.447 86.3469 125.053C88.925 124.707 91.5437 123.999 93.6926 122.465C95.8406 120.906 97.3527 118.611 97.9467 116.009C98.6039 113.267 98.3273 110.394 97.3887 107.752C96.4201 105.018 94.8886 102.522 92.895 100.427C91.1079 98.5817 88.6046 96.903 85.9278 97.2189C83.3549 97.5227 81.4836 99.6213 80.7983 102.049C79.9767 104.96 80.922 108.039 82.2039 110.66C84.3783 115.105 87.8678 118.836 92.0006 121.489C96.158 124.175 100.938 125.72 105.868 125.973C110.807 126.197 116.121 125.042 120.013 121.821C122.063 120.141 123.526 117.843 124.19 115.263C124.882 112.541 124.701 109.666 124.103 106.945C122.804 101.037 119.375 95.9586 117.389 90.3037C116.896 88.9238 116.517 87.5054 116.255 86.0629C116.19 85.6928 115.631 85.8496 115.696 86.2184C116.723 92.0357 119.973 97.0445 122.107 102.462C124.05 107.397 125.207 113.455 122.328 118.273C119.738 122.608 114.595 124.72 109.799 125.26C105.109 125.787 100.308 124.939 96.0087 123.001C91.6815 121.05 87.8035 118.01 84.9901 114.149C83.461 112.05 82.1436 109.673 81.4682 107.148C80.7769 104.562 80.939 101.634 82.7678 99.5462C83.5751 98.5958 84.6991 97.9762 85.9278 97.804C87.2045 97.6428 88.4829 98.0036 89.6049 98.6053C92.014 99.8972 93.8067 102.143 95.1899 104.465C96.619 106.864 97.6258 109.583 97.7258 112.402C97.8187 115.022 97.1371 117.709 95.5756 119.831C92.3518 124.211 86.2928 124.742 81.3202 124.776C75.2255 124.814 69.1646 123.86 63.371 121.95C61.9707 121.489 60.59 120.972 59.2289 120.401C58.8846 120.257 58.7345 120.823 59.0748 120.965H59.0748Z" fill="#E4E4E5"/>
<path d="M43.9987 101.984L42.4414 99.5722C42.2599 99.2903 42.1966 98.9474 42.2654 98.6186C42.3342 98.2897 42.5295 98.0018 42.8084 97.818L52.2941 90.3788C52.5734 90.1956 52.9133 90.1318 53.2392 90.2012C53.5652 90.2706 53.8505 90.4676 54.0326 90.749L55.5899 93.1609C55.7714 93.4427 55.8347 93.7856 55.7659 94.1145C55.6971 94.4433 55.5018 94.7312 55.2229 94.915L45.7373 102.354C45.4579 102.537 45.118 102.601 44.7921 102.532C44.4662 102.462 44.1808 102.265 43.9987 101.984Z" fill="#141414"/>
<path d="M42.82 97.8281L45.3218 96.4446C45.6141 96.2834 45.9578 96.2457 46.2776 96.3399C46.5974 96.4341 46.8671 96.6524 47.0275 96.9469L53.6702 109.022C53.83 109.317 53.8673 109.664 53.7739 109.987C53.6806 110.309 53.4642 110.581 53.1723 110.743L50.6705 112.127C50.3782 112.288 50.0345 112.326 49.7147 112.232C49.3949 112.137 49.1252 111.919 48.9648 111.625L42.3221 99.5491C42.1623 99.2542 42.125 98.9074 42.2184 98.5847C42.3117 98.2621 42.5281 97.99 42.82 97.8281Z" fill="#141414"/>
<path d="M25.4295 75.6072C25.1108 75.6067 24.8042 75.484 24.5718 75.264C24.3394 75.0441 24.1985 74.7432 24.1777 74.4223L23.9912 71.55C23.9694 71.2145 24.0806 70.884 24.3003 70.6313C24.5201 70.3785 24.8303 70.2242 25.1628 70.2022L47.467 68.7284C47.8186 68.7052 48.1713 68.7521 48.5049 68.8664C48.8386 68.9806 49.1466 69.1601 49.4115 69.3945C49.6764 69.6289 49.8929 69.9137 50.0487 70.2325C50.2045 70.5513 50.2966 70.898 50.3196 71.2527C50.3426 71.6074 50.2962 71.9633 50.1829 72.2999C50.0696 72.6365 49.8918 72.9473 49.6594 73.2145C49.4271 73.4818 49.1449 73.7003 48.8289 73.8575C48.5129 74.0147 48.1693 74.1075 47.8177 74.1308L25.5135 75.6044C25.4854 75.6062 25.4574 75.6071 25.4295 75.6072Z" fill="#7633FF"/>
<path d="M29.8289 75.9781C29.504 75.9775 29.1919 75.8502 28.958 75.6227C28.724 75.3952 28.5864 75.0852 28.5739 74.7577L28.4149 70.4675C28.4088 70.3011 28.4352 70.1352 28.4926 69.9791C28.55 69.823 28.6373 69.6799 28.7495 69.5579C28.8618 69.4359 28.9967 69.3373 29.1467 69.268C29.2967 69.1986 29.4587 69.1597 29.6236 69.1535L47.965 68.4618C48.298 68.4493 48.6223 68.5707 48.8665 68.7994C49.1108 69.0281 49.255 69.3453 49.2675 69.6813L49.4264 73.9715C49.4326 74.1378 49.4062 74.3038 49.3488 74.4598C49.2914 74.6159 49.2041 74.759 49.0918 74.8811C48.9796 75.0031 48.8446 75.1016 48.6947 75.171C48.5447 75.2404 48.3826 75.2793 48.2177 75.2855L29.8764 75.9771C29.8605 75.9778 29.8446 75.9781 29.8289 75.9781Z" fill="#E4E4E5"/>
<path d="M59.2784 121.336V112.026C59.2784 103.898 55.764 96.104 49.4932 91.0026C44.8062 87.1896 38.0174 84.3383 28.292 84.9754L31.9969 70.0234L1.52588e-05 92.1116L31.3233 114.2L28.1236 100.097C28.1236 100.097 47.6585 96.3593 59.2784 121.336Z" fill="#141414"/>
<path d="M36.9026 106.62L34.5951 104.927C34.3259 104.729 34.1455 104.431 34.0935 104.099C34.0416 103.767 34.1222 103.428 34.3178 103.156L48.3013 83.7521C48.4975 83.4805 48.7925 83.2985 49.1215 83.246C49.4505 83.1936 49.7868 83.2749 50.0564 83.4723L52.3639 85.165C52.6331 85.363 52.8135 85.6606 52.8655 85.9926C52.9175 86.3245 52.8369 86.6638 52.6413 86.9358L38.6577 106.34C38.4615 106.611 38.1666 106.793 37.8375 106.846C37.5085 106.898 37.1723 106.817 36.9026 106.62Z" fill="#141414"/>
<path d="M34.3298 103.162L36.1779 100.969C36.394 100.714 36.7018 100.555 37.0338 100.528C37.3658 100.5 37.695 100.607 37.949 100.825L48.4239 109.715C48.6775 109.933 48.8349 110.244 48.8618 110.579C48.8887 110.914 48.7827 111.246 48.5672 111.502L46.7191 113.695C46.5031 113.951 46.1953 114.11 45.8632 114.137C45.5312 114.164 45.2021 114.057 44.948 113.84L34.4731 104.949C34.2196 104.731 34.0621 104.421 34.0352 104.086C34.0084 103.751 34.1143 103.419 34.3298 103.162Z" fill="#141414"/>
<path d="M46.9871 63.9609C52.4317 63.9609 56.8453 59.5078 56.8453 54.0146C56.8453 48.5215 52.4317 44.0684 46.9871 44.0684C41.5426 44.0684 37.1289 48.5215 37.1289 54.0146C37.1289 59.5078 41.5426 63.9609 46.9871 63.9609Z" fill="#7633FF"/>
<path d="M42.6511 58.3959C42.3174 58.4029 41.9861 58.3378 41.6794 58.2049C41.4723 58.1057 41.2893 57.9621 41.143 57.7841C40.9968 57.6061 40.8909 57.3979 40.8327 57.1742C40.7884 57.0159 40.781 56.8494 40.8111 56.6877C40.8412 56.5259 40.9079 56.3734 41.0061 56.2421C41.2635 55.9088 41.7081 55.7502 42.2312 55.7908L40.9365 52.1342L41.3005 52.0029L42.8226 56.3017L42.4794 56.2231C42.0816 56.1324 41.5656 56.1523 41.311 56.4818C41.2494 56.5669 41.208 56.6652 41.1902 56.769C41.1723 56.8729 41.1784 56.9795 41.208 57.0805C41.2522 57.2468 41.3314 57.4016 41.4402 57.5342C41.549 57.6669 41.6848 57.7744 41.8384 57.8493C42.3765 58.0944 43.0063 58.0072 43.7141 57.8778L43.783 58.2615C43.4104 58.3403 43.0316 58.3853 42.6511 58.3959Z" fill="#141414"/>
<path d="M39.1509 52.8523L37.1133 53.2842L37.1928 53.6659L39.2304 53.234L39.1509 52.8523Z" fill="#141414"/>
<path d="M45.5806 51.488L43.543 51.9199L43.6224 52.3016L45.6601 51.8697L45.5806 51.488Z" fill="#141414"/>
<path d="M55.2198 96.7035H38.5962C38.1606 96.703 37.7429 96.5282 37.4349 96.2174C37.1269 95.9067 36.9536 95.4853 36.9531 95.0458L40.4333 68.1198C40.4361 67.6823 40.6103 67.2637 40.9181 66.9554C41.2258 66.6471 41.6419 66.4743 42.0755 66.4746H47.975C50.3314 66.4773 52.5905 67.4229 54.2567 69.104C55.9229 70.7851 56.8602 73.0644 56.8629 75.4419V95.0458C56.8624 95.4853 56.6891 95.9067 56.3811 96.2174C56.0731 96.5282 55.6554 96.703 55.2198 96.7035Z" fill="#E4E4E5"/>
<path d="M29.2581 85.4605C29.0156 85.4607 28.7781 85.39 28.5744 85.2572C28.3707 85.1244 28.2093 84.9349 28.1098 84.7118L26.9421 82.0854C26.8746 81.9335 26.8373 81.7697 26.8326 81.6033C26.8278 81.4369 26.8555 81.2712 26.9142 81.1156C26.9729 80.96 27.0614 80.8176 27.1747 80.6965C27.2879 80.5755 27.4237 80.4781 27.5742 80.41L47.9681 71.1795C48.2896 71.034 48.6363 70.9538 48.9885 70.9435C49.3406 70.9332 49.6914 70.993 50.0206 71.1195C50.3499 71.2459 50.6513 71.4366 50.9075 71.6805C51.1638 71.9245 51.3699 72.217 51.5141 72.5413C51.6583 72.8656 51.7378 73.2154 51.748 73.5708C51.7582 73.9261 51.6989 74.2799 51.5736 74.6122C51.4483 74.9444 51.2593 75.2484 51.0175 75.507C50.7757 75.7655 50.4858 75.9734 50.1643 76.1189L29.7705 85.3495C29.6094 85.4226 29.4348 85.4605 29.2581 85.4605Z" fill="#7633FF"/>
<path d="M35.2095 84.1046C34.9669 84.1048 34.7295 84.0342 34.5257 83.9013C34.322 83.7685 34.1607 83.5791 34.0612 83.3559L32.0666 78.8699C31.9306 78.5631 31.9208 78.2144 32.0393 77.9003C32.1578 77.5862 32.395 77.3324 32.6988 77.1945L49.4451 69.615C49.5956 69.5468 49.758 69.5093 49.9229 69.5044C50.0878 69.4996 50.2521 69.5276 50.4063 69.5868C50.5605 69.646 50.7017 69.7353 50.8217 69.8496C50.9417 69.9638 51.0382 70.1008 51.1057 70.2527L53.1003 74.7386C53.1678 74.8905 53.205 75.0543 53.2098 75.2207C53.2146 75.3871 53.1869 75.5528 53.1282 75.7084C53.0695 75.864 52.981 76.0064 52.8677 76.1274C52.7545 76.2485 52.6187 76.3459 52.4681 76.414L35.7218 83.9936C35.5607 84.0667 35.3861 84.1045 35.2095 84.1046Z" fill="#E4E4E5"/>
<path d="M44.7988 47.7794C43.1937 47.1829 41.8743 48.7545 40.4199 49.1143C39.0285 49.4586 37.5294 48.6487 36.7862 47.4684C35.9191 46.0913 36.1339 44.3035 36.9227 42.9441C37.7866 41.4552 39.325 40.5416 40.9556 40.1426C42.8244 39.6852 44.7716 39.9102 46.616 40.3747C48.3851 40.7926 50.1003 41.4157 51.7274 42.2314C53.1983 42.9996 54.5926 44.0504 55.4523 45.5058C56.2336 46.8285 56.6201 48.4748 56.2335 49.9903C56.0206 50.7726 55.6115 51.4863 55.0456 52.0627C54.4634 52.6845 53.7963 53.2236 53.2533 53.8832C52.4323 54.8806 51.8806 56.5152 52.6901 57.695C52.8655 57.9532 53.1013 58.164 53.3765 58.3087C53.7071 58.4824 54.0006 57.9777 53.6692 57.8035C53.087 57.4976 52.8757 56.8767 52.8913 56.2437C52.9226 55.5253 53.1948 54.8389 53.6634 54.2969C54.2321 53.6074 54.9351 53.0492 55.5356 52.3901C56.1165 51.7758 56.5417 51.029 56.775 50.2132C57.2017 48.6354 56.868 46.9169 56.1127 45.4954C55.2953 43.9571 53.9253 42.7956 52.4343 41.9514C50.8117 41.0328 49.0083 40.4171 47.2178 39.9281C45.2966 39.4035 43.2793 39.1081 41.3023 39.4712C39.5885 39.7859 37.9137 40.6206 36.8359 42.033C35.8299 43.3513 35.3493 45.1481 35.8358 46.7704C36.0667 47.5049 36.4875 48.164 37.0547 48.68C37.622 49.1959 38.3152 49.5501 39.0632 49.706C39.8237 49.8471 40.6089 49.7437 41.3081 49.4105C42.0614 49.0699 42.7456 48.5405 43.5468 48.3141C43.9062 48.2032 44.2916 48.2136 44.6447 48.3436C44.9954 48.4739 45.1466 47.9087 44.7988 47.7794Z" fill="#141414"/>
<path d="M115.723 87.4082V78.0978C115.723 69.9705 119.237 62.1762 125.508 57.0748C130.195 53.2618 136.984 50.4105 146.709 51.0477L143.004 36.0957L175.001 58.1839L143.678 80.272L146.878 66.1696C146.878 66.1696 127.343 62.4316 115.723 87.4082Z" fill="#141414"/>
<path d="M133.115 40.8265C132.702 40.4902 132.397 40.038 132.239 39.527C132.081 39.0159 132.077 38.469 132.226 37.9555C132.376 37.4419 132.674 36.9847 133.081 36.6416C133.489 36.2986 133.988 36.0852 134.515 36.0284L156.741 33.634C157.072 33.5987 157.404 33.6974 157.663 33.9085C157.922 34.1195 158.088 34.4257 158.124 34.7599L158.027 34.7702L158.124 34.7599L158.426 37.6221C158.444 37.7876 158.429 37.955 158.382 38.1147C158.336 38.2744 158.259 38.4233 158.155 38.5528C158.051 38.6824 157.923 38.7901 157.779 38.8697C157.634 38.9494 157.475 38.9995 157.311 39.0172L135.085 41.4115C134.989 41.422 134.892 41.4272 134.795 41.4272C134.183 41.4276 133.59 41.2154 133.115 40.8265Z" fill="#7633FF"/>
<path d="M139.66 60.5992V57.7208C139.661 57.3847 139.793 57.0625 140.029 56.8248C140.264 56.5872 140.583 56.4535 140.917 56.4531H164.695C165.028 56.4535 165.348 56.5872 165.583 56.8248C165.819 57.0625 165.951 57.3847 165.951 57.7208V60.5992C165.951 60.9353 165.819 61.2575 165.583 61.4952C165.348 61.7328 165.028 61.8665 164.695 61.8669H140.917C140.583 61.8665 140.264 61.7328 140.029 61.4952C139.793 61.2575 139.661 60.9353 139.66 60.5992Z" fill="#7633FF"/>
<path d="M128.293 60.7391C128.145 60.6646 128.013 60.5613 127.906 60.4352C127.798 60.3091 127.716 60.1626 127.665 60.0043L126.77 57.2709C126.666 56.9517 126.692 56.6038 126.841 56.3036C126.991 56.0035 127.253 55.7755 127.569 55.6698L150.149 48.1479C150.465 48.0425 150.81 48.0682 151.108 48.2194C151.405 48.3706 151.631 48.6349 151.736 48.9542L151.644 48.9848L151.736 48.9542L152.63 51.6875C152.734 52.0068 152.709 52.3546 152.559 52.6548C152.409 52.955 152.147 53.1829 151.831 53.2886L129.252 60.8105C129.095 60.8632 128.93 60.8839 128.765 60.8717C128.6 60.8594 128.44 60.8144 128.293 60.7391V60.7391Z" fill="#7633FF"/>
<path d="M157.896 61.5831L147.762 52.3645C147.515 52.1391 147.367 51.8241 147.349 51.4884C147.332 51.1528 147.448 50.824 147.67 50.5741L149.581 48.4363C149.804 48.1866 150.116 48.0366 150.449 48.0193C150.782 48.0019 151.108 48.1186 151.355 48.3437L161.489 57.5624C161.736 57.7877 161.885 58.1028 161.902 58.4384C161.919 58.774 161.804 59.1028 161.581 59.3527L159.67 61.4905C159.56 61.6145 159.427 61.7152 159.278 61.7868C159.129 61.8584 158.967 61.8994 158.802 61.9076C158.78 61.9088 158.758 61.9094 158.736 61.9094C158.425 61.9098 158.126 61.7935 157.896 61.5831Z" fill="#7633FF"/>
<path d="M132.132 28.4658C137.576 28.4658 141.99 24.0127 141.99 18.5195C141.99 13.0263 137.576 8.57324 132.132 8.57324C126.687 8.57324 122.273 13.0263 122.273 18.5195C122.273 24.0127 126.687 28.4658 132.132 28.4658Z" fill="#7633FF"/>
<path d="M120.592 57.9927C119.903 56.8038 119.539 55.451 119.539 54.0733C119.539 52.6957 119.903 51.3429 120.592 50.1539L131.042 31.8926C131.152 31.6999 131.311 31.5399 131.502 31.4286C131.693 31.3174 131.91 31.2588 132.13 31.2588C132.351 31.2588 132.568 31.3174 132.759 31.4286C132.95 31.5399 133.108 31.6999 133.218 31.8926L149.309 60.0107C149.419 60.2034 149.477 60.422 149.477 60.6445C149.477 60.8671 149.419 61.0857 149.309 61.2784C149.198 61.4711 149.04 61.6311 148.849 61.7424C148.658 61.8536 148.441 61.9122 148.221 61.9122H127.321C125.955 61.9204 124.612 61.5617 123.43 60.8728C122.247 60.184 121.268 59.1899 120.592 57.9927Z" fill="#E4E4E5"/>
<path d="M140.257 22.3049C140.896 22.287 141.691 22.2647 142.304 21.8131C142.486 21.6731 142.636 21.4946 142.743 21.29C142.85 21.0855 142.911 20.8598 142.922 20.6288C142.934 20.4647 142.907 20.3002 142.844 20.1481C142.782 19.9961 142.686 19.8607 142.563 19.7525C142.243 19.4796 141.776 19.4157 141.272 19.565L141.794 15.718L141.411 15.665L140.797 20.1877L141.117 20.0396C141.488 19.868 141.997 19.7808 142.313 20.0503C142.391 20.1209 142.451 20.2085 142.49 20.3064C142.529 20.4044 142.544 20.51 142.536 20.615C142.527 20.7869 142.481 20.9548 142.401 21.1072C142.322 21.2595 142.211 21.3929 142.076 21.4981C141.599 21.8495 140.965 21.8948 140.246 21.9151L140.257 22.3049Z" fill="#141414"/>
<path d="M139.199 16.0498H137.117V16.4399H139.199V16.0498Z" fill="#141414"/>
<path d="M126.287 6.78899C126.013 5.66012 125.506 4.60249 124.798 3.6856C124.09 2.76872 123.198 2.01334 122.18 1.46911C121.136 0.927887 119.986 0.62802 118.813 0.591299C117.64 0.554577 116.474 0.781921 115.399 1.25682C114.298 1.73265 113.32 2.45752 112.541 3.3754C111.762 4.29328 111.202 5.3796 110.906 6.55041C110.6 7.72825 110.558 8.95981 110.782 10.1561C111.057 11.4233 111.59 12.6188 112.347 13.6669C113.111 14.7826 114.009 15.7952 114.833 16.8642C115.66 17.9354 116.414 19.0627 117.088 20.2381C119.119 23.7796 120.407 27.7046 120.872 31.7693C121.029 32.997 121.059 34.2379 120.96 35.4718C120.738 37.8679 119.818 40.2148 117.707 41.5186C116.584 42.2118 115.288 42.5697 114.007 42.8201C112.568 43.1277 111.095 43.2438 109.627 43.1654C107.144 42.9874 104.66 41.9422 103.218 39.8136C102.899 39.3395 102.649 38.8216 102.476 38.2758C102.362 37.9166 102.921 37.7628 103.036 38.1202C103.799 40.5088 106.117 41.9812 108.462 42.4301C109.923 42.677 111.414 42.6756 112.874 42.4258C114.201 42.226 115.568 41.9493 116.784 41.3588C117.888 40.839 118.804 39.9844 119.405 38.914C119.947 37.8807 120.276 36.7469 120.37 35.5814C120.628 33.0297 120.208 30.388 119.577 27.9199C118.903 25.2784 117.869 22.7441 116.504 20.3894C115.823 19.2128 115.059 18.0863 114.221 17.0182C113.39 15.9616 112.504 14.9457 111.755 13.8265C111.015 12.7707 110.494 11.5753 110.223 10.3117C109.992 9.09927 110.013 7.8517 110.286 6.64811C110.548 5.46027 111.063 4.34379 111.793 3.37517C112.523 2.40656 113.453 1.60872 114.517 1.03635C116.606 -0.0755343 119.152 -0.341751 121.386 0.477553C123.555 1.28492 125.32 2.92315 126.298 5.03622C126.533 5.54879 126.717 6.08389 126.846 6.63346C126.931 6.99966 126.372 7.15595 126.287 6.789V6.78899Z" fill="#141414"/>
<path d="M124.402 7.26469C124.039 6.21936 123.306 5.34586 122.345 4.81118C121.383 4.2765 120.26 4.11814 119.19 4.36639C118.827 4.45205 118.672 3.88806 119.036 3.80221C120.255 3.50052 121.541 3.67334 122.64 4.28623C123.738 4.89912 124.567 5.90706 124.961 7.10915C125.083 7.46597 124.523 7.61922 124.402 7.26469Z" fill="#141414"/>
<path d="M124.313 9.37888C124.202 9.11748 124.198 8.82234 124.302 8.5582C124.407 8.29407 124.611 8.0825 124.87 7.9699L127.533 6.8147C127.792 6.70237 128.085 6.69847 128.347 6.80385C128.609 6.90924 128.819 7.11528 128.93 7.37666C129.041 7.63803 129.045 7.93332 128.941 8.19757C128.836 8.46182 128.632 8.67338 128.373 8.78571L125.709 9.94091C125.45 10.0532 125.157 10.0571 124.895 9.95171C124.634 9.84631 124.424 9.64026 124.313 9.37888Z" fill="#141414"/>
<path d="M130.869 64.1966L128.026 63.9637C127.694 63.9361 127.386 63.7768 127.17 63.5207C126.955 63.2645 126.849 62.9326 126.875 62.5976L128.684 40.1199C128.712 39.7655 128.81 39.4201 128.97 39.1037C129.131 38.7872 129.352 38.5058 129.62 38.2755C129.889 38.0451 130.2 37.8705 130.535 37.7614C130.871 37.6523 131.224 37.611 131.575 37.6397C131.927 37.6685 132.269 37.7668 132.582 37.9291C132.896 38.0913 133.175 38.3143 133.403 38.5853C133.631 38.8563 133.804 39.17 133.912 39.5085C134.02 39.847 134.061 40.2036 134.032 40.558L132.223 63.0356C132.198 63.3527 132.055 63.6485 131.824 63.8643C131.592 64.0802 131.288 64.2003 130.973 64.2008C130.939 64.2008 130.904 64.1994 130.869 64.1966Z" fill="#7633FF"/>
<path d="M2.50753 19.4416C1.49126 17.0445 2.88432 13.9172 5.33573 13.0926C7.78713 12.2679 10.7616 13.9259 11.3745 16.4587C10.9782 15.4834 10.8116 14.4286 10.8878 13.3773C10.9639 12.326 11.2807 11.3069 11.8133 10.4001C12.3459 9.49327 13.0798 8.72346 13.9572 8.15121C14.8345 7.57896 15.8315 7.21987 16.8697 7.10218C17.908 6.98449 18.9591 7.1114 19.9405 7.47295C20.9218 7.83449 21.8067 8.4208 22.5255 9.18577C23.2442 9.95075 23.7773 10.8735 24.0828 11.8815C24.3882 12.8896 24.4578 13.9553 24.2859 14.9951C25.7636 12.7971 28.9343 11.967 31.2848 13.1627C33.6354 14.3584 34.8593 17.424 33.9864 19.9297L1.63281 19.8714" fill="#F8F9FA"/>
<path d="M68.0349 46.7453C67.0186 44.3482 68.4117 41.2209 70.8631 40.3963C73.3145 39.5716 76.289 41.2296 76.9019 43.7624C76.5056 42.7871 76.339 41.7323 76.4151 40.681C76.4913 39.6298 76.8081 38.6106 77.3407 37.7038C77.8733 36.797 78.6071 36.0272 79.4845 35.4549C80.3619 34.8827 81.3589 34.5236 82.3971 34.4059C83.4353 34.2882 84.4864 34.4151 85.4678 34.7767C86.4492 35.1382 87.334 35.7245 88.0528 36.4895C88.7716 37.2545 89.3046 38.1772 89.6101 39.1853C89.9156 40.1933 89.9851 41.259 89.8132 42.2988C91.2909 40.1008 94.4616 39.2707 96.8122 40.4664C99.1627 41.6621 100.387 44.7277 99.5138 47.2334L67.1602 47.1751" fill="#F8F9FA"/>
</g>
<defs>
<clipPath id="clip0_18290_4793">
<rect width="175" height="126" fill="white"/>
</clipPath>
</defs>
</svg>
