<svg width="34" height="34" viewBox="0 0 34 34" fill="none" xmlns="http://www.w3.org/2000/svg">
<path d="M4.95898 29.7497C4.39232 29.7497 3.89648 29.5372 3.47148 29.1122C3.04648 28.6872 2.83398 28.1913 2.83398 27.6247V10.6247C2.83398 10.058 3.04648 9.56217 3.47148 9.13717C3.89648 8.71217 4.39232 8.49967 4.95898 8.49967H11.334V4.95801C11.334 4.39134 11.5465 3.89551 11.9715 3.47051C12.3965 3.04551 12.8923 2.83301 13.459 2.83301H20.5423C21.109 2.83301 21.6048 3.04551 22.0298 3.47051C22.4548 3.89551 22.6673 4.39134 22.6673 4.95801V8.49967H29.0423C29.609 8.49967 30.1048 8.71217 30.5298 9.13717C30.9548 9.56217 31.1673 10.058 31.1673 10.6247V27.6247C31.1673 28.1913 30.9548 28.6872 30.5298 29.1122C30.1048 29.5372 29.609 29.7497 29.0423 29.7497H4.95898ZM4.95898 27.6247H29.0423V10.6247H4.95898V27.6247ZM13.459 8.49967H20.5423V4.95801H13.459V8.49967ZM4.95898 27.6247V10.6247V27.6247Z" fill="#7633FF"/>
</svg>
