<svg width="24" height="24" viewBox="0 0 24 24" fill="none" xmlns="http://www.w3.org/2000/svg">
<path d="M5.75 21.025C4.7 21.025 3.8125 20.6625 3.0875 19.9375C2.3625 19.2125 2 18.325 2 17.275C2 16.225 2.3625 15.3375 3.0875 14.6125C3.8125 13.8875 4.7 13.525 5.75 13.525C6.8 13.525 7.6875 13.8875 8.4125 14.6125C9.1375 15.3375 9.5 16.225 9.5 17.275C9.5 18.325 9.1375 19.2125 8.4125 19.9375C7.6875 20.6625 6.8 21.025 5.75 21.025ZM18.275 21.025C17.225 21.025 16.3375 20.6625 15.6125 19.9375C14.8875 19.2125 14.525 18.325 14.525 17.275C14.525 16.225 14.8875 15.3375 15.6125 14.6125C16.3375 13.8875 17.225 13.525 18.275 13.525C19.325 13.525 20.2125 13.8875 20.9375 14.6125C21.6625 15.3375 22.025 16.225 22.025 17.275C22.025 18.325 21.6625 19.2125 20.9375 19.9375C20.2125 20.6625 19.325 21.025 18.275 21.025ZM5.75 19.525C6.36667 19.525 6.89583 19.3042 7.3375 18.8625C7.77917 18.4208 8 17.8917 8 17.275C8 16.6583 7.77917 16.1292 7.3375 15.6875C6.89583 15.2458 6.36667 15.025 5.75 15.025C5.13333 15.025 4.60417 15.2458 4.1625 15.6875C3.72083 16.1292 3.5 16.6583 3.5 17.275C3.5 17.8917 3.72083 18.4208 4.1625 18.8625C4.60417 19.3042 5.13333 19.525 5.75 19.525ZM18.275 19.525C18.8917 19.525 19.4208 19.3042 19.8625 18.8625C20.3042 18.4208 20.525 17.8917 20.525 17.275C20.525 16.6583 20.3042 16.1292 19.8625 15.6875C19.4208 15.2458 18.8917 15.025 18.275 15.025C17.6583 15.025 17.1292 15.2458 16.6875 15.6875C16.2458 16.1292 16.025 16.6583 16.025 17.275C16.025 17.8917 16.2458 18.4208 16.6875 18.8625C17.1292 19.3042 17.6583 19.525 18.275 19.525ZM12.025 10.5C10.975 10.5 10.0875 10.1375 9.3625 9.4125C8.6375 8.6875 8.275 7.8 8.275 6.75C8.275 5.7 8.6375 4.8125 9.3625 4.0875C10.0875 3.3625 10.975 3 12.025 3C13.075 3 13.9625 3.3625 14.6875 4.0875C15.4125 4.8125 15.775 5.7 15.775 6.75C15.775 7.8 15.4125 8.6875 14.6875 9.4125C13.9625 10.1375 13.075 10.5 12.025 10.5ZM12.025 9C12.6417 9 13.1708 8.77917 13.6125 8.3375C14.0542 7.89583 14.275 7.36667 14.275 6.75C14.275 6.13333 14.0542 5.60417 13.6125 5.1625C13.1708 4.72083 12.6417 4.5 12.025 4.5C11.4083 4.5 10.8792 4.72083 10.4375 5.1625C9.99583 5.60417 9.775 6.13333 9.775 6.75C9.775 7.36667 9.99583 7.89583 10.4375 8.3375C10.8792 8.77917 11.4083 9 12.025 9Z" fill="#A5A8AC"/>
</svg>
