<svg width="34" height="34" viewBox="0 0 34 34" fill="none" xmlns="http://www.w3.org/2000/svg">
<path d="M17.0013 16.293C15.443 16.293 14.168 15.7971 13.1763 14.8055C12.1846 13.8138 11.6888 12.5388 11.6888 10.9805C11.6888 9.42214 12.1846 8.14714 13.1763 7.15547C14.168 6.1638 15.443 5.66797 17.0013 5.66797C18.5596 5.66797 19.8346 6.1638 20.8263 7.15547C21.818 8.14714 22.3138 9.42214 22.3138 10.9805C22.3138 12.5388 21.818 13.8138 20.8263 14.8055C19.8346 15.7971 18.5596 16.293 17.0013 16.293ZM26.2096 27.6617H7.79297C7.20269 27.6617 6.70095 27.4551 6.28776 27.0419C5.87457 26.6287 5.66797 26.127 5.66797 25.5367V24.3326C5.66797 23.4353 5.89227 22.668 6.34089 22.0305C6.7895 21.393 7.36797 20.9089 8.0763 20.5784C9.65825 19.8701 11.1753 19.3388 12.6273 18.9846C14.0794 18.6305 15.5374 18.4534 17.0013 18.4534C18.4652 18.4534 19.9173 18.6364 21.3576 19.0023C22.7978 19.3683 24.3089 19.8937 25.8909 20.5784C26.6228 20.9089 27.2131 21.393 27.6617 22.0305C28.1103 22.668 28.3346 23.4353 28.3346 24.3326V25.5367C28.3346 26.127 28.128 26.6287 27.7148 27.0419C27.3017 27.4551 26.7999 27.6617 26.2096 27.6617ZM7.79297 25.5367H26.2096V24.3326C26.2096 23.9548 26.0975 23.5947 25.8732 23.2523C25.6489 22.91 25.3714 22.6562 25.0409 22.4909C23.5298 21.7589 22.1485 21.2572 20.8971 20.9857C19.6457 20.7141 18.3471 20.5784 17.0013 20.5784C15.6555 20.5784 14.3451 20.7141 13.0701 20.9857C11.7951 21.2572 10.4138 21.7589 8.9263 22.4909C8.59575 22.6562 8.32422 22.91 8.11172 23.2523C7.89922 23.5947 7.79297 23.9548 7.79297 24.3326V25.5367ZM17.0013 14.168C17.9221 14.168 18.6836 13.8669 19.2857 13.2648C19.8878 12.6628 20.1888 11.9013 20.1888 10.9805C20.1888 10.0596 19.8878 9.29818 19.2857 8.69609C18.6836 8.09401 17.9221 7.79297 17.0013 7.79297C16.0805 7.79297 15.319 8.09401 14.7169 8.69609C14.1148 9.29818 13.8138 10.0596 13.8138 10.9805C13.8138 11.9013 14.1148 12.6628 14.7169 13.2648C15.319 13.8669 16.0805 14.168 17.0013 14.168Z" fill="#7633FF"/>
</svg>
